<svg width="200" height="200" viewBox="0 0 200 200" fill="none" xmlns="http://www.w3.org/2000/svg">
<path d="M10.49 106.86C23.77 106.86 36.7 103.81 48.48 98C50.14 103.41 52.67 109.85 57.41 115.95C74.07 137.36 92.71 145.48 84.66 151.71C80.11 155.24 67.66 164.71 65.54 167.35C64.41 168.75 64.02 170.3 64.29 172.75C64.43 174.08 67.74 188.76 70.31 200H104.22C106.83 193.4 111.91 186.74 117.66 186.74C124.31 186.74 131.32 190.93 136 191.91C137.79 192.29 138.63 192.19 139.18 191.63C139.73 191.08 138.46 193.87 159.16 144.5C159.19 144.43 159.27 144.4 159.34 144.42L166.83 147.51C167.84 147.92 168.28 147.12 168.67 146.1C173.14 134.5 197.51 72.35 187.01 0H179.15C179.32 31.45 176.19 71.19 164.89 100.07C164.84 100.21 164.67 100.27 164.54 100.19L156.33 95.49C155.87 95.21 155.29 95.47 155.18 95.99C150.17 121.44 132.79 149.27 132.75 149.67L131.94 149.22C133.28 147.61 134.14 140.57 128.67 137.99C130.11 136.93 136.98 130.77 136.98 121.61C136.98 116.08 134.97 109.78 128.78 103.6C126.97 101.79 125.16 100.66 123.68 100.59C119.07 97.26 110.26 100.88 109.63 101.19C108.42 101.78 106.87 102.64 106.02 102.69C105.17 102.75 101.68 101.65 100.5 101.68C99.58 101.7 99.21 102.48 99.08 102.82C98.95 103.16 98.78 104 98.64 104.32C98.42 104.8 97.28 105.28 96.98 105.54C96.68 105.8 96.56 106.24 96.57 106.63C96.58 107.02 96.61 107.28 96.61 107.28C94.01 107.45 95.1 108.76 94.62 109.17C94 109.69 90.97 110.41 90.36 112.81C90.22 113.35 90.45 114.24 91.15 115.25C91.85 116.26 94.39 120.67 94.68 121.85C94.95 122.92 95.42 125.76 94.97 128.37C85.66 120.74 72.98 111.06 72.15 110.48C71.02 109.68 65.91 100.01 63 94.95C62.48 94.04 61.62 92.55 60.56 90.73C62.01 89.69 63.45 88.62 64.85 87.48C82.77 72.91 93.94 52.24 96.31 29.27C97.35 19.32 96.66 9.45 94.36 0H50.2C45.41 0.62 40.62 1.35 35.98 2.15C36.18 1.44 36.37 0.72 36.57 0H31.62C31.32 1.03 31.02 2.06 30.71 3.08C21.51 4.78 13.24 6.6 7.35001 8.03C5.02001 8.6 2.58001 9.23 0.0800073 9.89V14.74C3.00001 13.97 5.82001 13.27 8.47001 12.64C13.45 11.44 20.77 9.85 29.12 8.29C27.31 14.02 25.47 19.44 23.72 24.33C21.65 30.18 18.9 37.39 15.74 45.11C12.46 44 9.20001 42.82 5.95001 41.61C8.55001 40.52 10.37 37.95 10.37 34.96C10.37 30.98 7.14001 27.75 3.16001 27.75C2.06001 27.75 1.02001 28.02 0.0900073 28.46V44.48C0.960007 44.82 1.85001 45.18 2.69001 45.5C6.40001 46.93 10.13 48.29 13.89 49.58C9.70001 59.48 4.94001 69.94 0.0800073 79.29V88.21C6.63001 77.09 12.98 63.73 18.38 51.08C19.95 51.59 21.53 52.07 23.1 52.55C23.06 52.62 23.03 52.68 22.99 52.77C22.83 53.16 22.88 53.61 23.12 53.96L29.24 63.24C30.16 64.64 31.33 65.87 32.67 66.87L36.73 69.9C37.62 70.56 38.36 71.38 38.98 72.28L38.93 72.33C39.33 72.76 40.3 74.83 41.44 77.58C28.88 85.83 14.91 92.15 0.0800073 96.9V101.32C15.73 96.72 30 90.64 43.25 82.08C44.84 86.2 46.42 90.66 47.18 93.46C47.21 93.56 47.23 93.66 47.26 93.75C33.37 100.79 17.75 103.73 1.89001 102.09C1.28001 102.03 0.680007 101.94 0.0700073 101.86V106.22C0.530007 106.27 0.980007 106.35 1.44001 106.4C4.48001 106.71 7.49001 106.86 10.49 106.86ZM59.82 85.92C59.35 86.27 58.87 86.6 58.4 86.94C56.42 83.49 54.15 79.51 52.11 75.87C54.08 74.37 56.04 72.82 57.97 71.19C60.96 68.66 63.83 65.98 66.58 63.19C65.55 71.26 63.38 78.97 59.82 85.92ZM67.19 79.63C69.47 73.58 70.91 67.16 71.59 60.56C75.4 60.41 79.14 59.98 82.75 59.2C78.72 66.73 73.48 73.61 67.19 79.63ZM92.02 28.83C91.08 37.92 88.67 46.62 84.98 54.68C81.16 55.63 77.1 56.1 72.94 56.23C76.23 52.34 79.3 48.26 82.08 43.97C86.25 37.43 89.74 30.43 92.4 23.13C92.32 25.03 92.22 26.93 92.02 28.83ZM66.81 13.8C70.79 13.8 74.02 10.57 74.02 6.59C74.02 5.13 73.58 3.78 72.84 2.65C79.93 2.34 86.18 2.57 90.73 3.59C91.19 5.82 91.56 8.08 91.84 10.35C89.01 21.35 84.25 31.83 78.06 41.38C76.15 44.28 74.14 47.06 72.04 49.74C71.87 37.63 69.51 25.25 65.62 13.69C66.01 13.76 66.4 13.8 66.81 13.8ZM44.87 53.23C44.77 52.89 44.65 52.57 44.51 52.25L40.93 44.55C40.6 43.83 39.64 43.68 39.11 44.27L38.9 44.49C38.66 44.75 38.56 45.11 38.63 45.46L39.93 51.82C39.96 51.94 39.9 52.05 39.81 52.1C39.67 52.07 39.53 52.03 39.39 51.99L28.93 43.49C28.62 43.21 28.18 43.13 27.79 43.28C27.15 43.53 26.67 44.29 27.02 44.88L28.43 46.9L26.4 45.39C25.76 44.85 24.97 44.82 24.69 45.11C24.31 45.5 24.14 46.05 24.41 46.52L25.7 48.28C25.31 48.16 24.91 48.05 24.51 47.93C23.1 47.5 21.69 47.06 20.28 46.61C23.39 39.13 26.12 32.03 28.3 25.97C30.35 20.17 32.46 13.89 34.46 7.33C41.62 6.06 49.29 4.87 56.75 4C62.5 16.95 66.38 31.9 67.13 46.63C65.82 45.27 63.98 44.42 61.94 44.42C57.96 44.42 54.73 47.65 54.73 51.63C54.73 52.9 55.06 54.09 55.63 55.12C51.97 54.6 48.39 53.95 45.01 53.26C44.96 53.25 44.92 53.24 44.87 53.23ZM46.37 64.78L45.56 58.2C51.02 59.26 56.77 60.09 62.56 60.44C58.54 64.48 54.26 68.2 49.78 71.65C47.92 68.22 46.56 65.57 46.37 64.78Z" fill="black"/>
</svg>
