<svg width="200" height="200" viewBox="0 0 200 200" fill="none" xmlns="http://www.w3.org/2000/svg">
<path d="M130.689 15.8936L133.135 10.3363C134.246 7.66876 137.358 6.33501 140.026 7.66876C140.915 8.11334 141.804 8.78021 142.249 9.44709L141.137 7.00188C140.915 6.77959 140.915 6.5573 140.693 6.11271C139.136 3.22292 135.58 1 130.689 1C125.132 1 121.575 3.6675 120.242 7.00188L105.57 41.4571L112.684 58.3513L130.689 15.8936Z" fill="black"/>
<path d="M178.704 106.144C178.927 105.699 179.149 105.033 179.371 104.366L178.704 106.144Z" fill="black"/>
<path d="M178.704 93.4734L179.371 95.0295C179.149 94.5849 178.927 94.1403 178.704 93.4734Z" fill="black"/>
<path d="M179.371 95.2518L178.704 93.6957L142.249 9.44709C141.804 8.55792 140.915 7.89105 140.026 7.66875C137.358 6.55729 134.246 7.66875 133.135 10.3363L130.689 15.8936L172.258 112.368C172.703 113.48 172.925 114.813 172.925 116.592C172.925 118.37 172.48 119.926 172.036 121.038L178.482 106.366L179.149 104.588C179.594 103.254 179.816 101.698 179.816 99.9199C180.26 98.1416 179.816 96.5855 179.371 95.2518Z" fill="black"/>
<path d="M99.3462 9.44709C98.9016 8.55792 98.0124 7.89105 97.1233 7.66875C94.4558 6.55729 91.3437 7.66875 90.2322 10.3363L87.787 15.8936L148.028 157.494L156.475 143.489L99.3462 9.44709Z" fill="black"/>
<path d="M168.701 121.038L163.366 108.589L130.467 184.391L128.022 189.948C126.91 192.616 123.798 193.949 121.131 192.616C120.242 192.171 119.352 191.504 118.908 190.837L120.019 193.282C120.242 193.505 120.242 193.727 120.464 194.172C122.02 197.061 125.577 199.284 130.467 199.284C136.024 199.284 139.581 196.617 140.915 193.282L168.701 129.262C169.146 128.151 169.368 126.817 169.368 125.261C169.368 123.705 169.146 122.149 168.701 121.038Z" fill="black"/>
<path d="M87.787 15.8936L90.2322 10.3363C91.3436 7.66876 94.4557 6.33501 97.1232 7.66876C98.0124 8.11334 98.9016 8.78021 99.3461 9.44709L98.2347 7.00188C98.0124 6.77959 98.0124 6.5573 97.7901 6.11271C96.2341 3.22292 92.6774 1 87.787 1C82.2297 1 78.673 3.6675 77.3392 7.00188L62.4457 41.6794L69.559 58.5736L87.787 15.8936Z" fill="black"/>
<path d="M31.7694 52.794C30.4357 49.4596 26.4344 47.9036 23.1 49.2374C22.2109 49.6819 21.544 50.1265 20.8771 50.7934C19.0988 52.5717 18.4319 55.4615 19.5434 57.9067L37.3267 99.9199L44.4401 83.0257L31.7694 52.794Z" fill="black"/>
<path d="M98.2347 58.3513L62.2234 142.6L69.3368 159.494L105.348 75.0232L98.2347 58.3513Z" fill="black"/>
<path d="M148.695 75.0232L141.359 58.129L105.348 142.822L112.461 159.716L148.695 75.0232Z" fill="black"/>
<path d="M55.1101 159.494L41.9949 189.948C40.6611 193.282 42.2172 197.284 45.5515 198.617C46.4407 199.062 47.3299 199.062 48.219 199.062C50.8865 199.062 53.1095 197.506 54.2209 195.061L62.2234 176.388L55.1101 159.494Z" fill="black"/>
<path d="M105.126 176.388L98.0124 159.494L87.3424 184.391L84.8972 189.948C83.7857 192.616 80.6736 193.949 78.0061 192.616C77.117 192.171 76.2278 191.504 75.7832 190.837L76.8947 193.282C77.117 193.505 77.117 193.727 77.3392 194.172C78.8953 197.061 82.452 199.284 87.3424 199.284C92.8997 199.284 96.4564 196.617 97.7901 193.282L105.126 176.388Z" fill="black"/>
<path d="M62.4457 75.2455L55.3324 58.3513L19.5434 141.711C18.2096 145.045 19.7656 149.046 23.1 150.38C23.9892 150.825 24.8784 150.825 25.7675 150.825C28.435 150.825 30.8802 149.269 31.7694 146.823L62.4457 75.2455Z" fill="black"/>
<path d="M54.4432 5.00126C53.1095 1.66688 49.1082 0.110839 45.7738 1.66688C44.8847 2.11147 44.2178 2.55605 43.5509 3.22293C41.7726 5.00126 41.1057 7.89106 42.2172 10.3363L80.2291 100.142L87.3424 83.248L54.4432 5.00126Z" fill="black"/>
<path d="M94.6781 100.142L87.5647 117.036L118.908 191.06C119.352 191.949 120.242 192.616 121.131 192.838C123.798 193.949 126.91 192.838 128.022 190.17L130.467 184.613L94.6781 100.142Z" fill="black"/>
<path d="M51.7757 99.9199L44.6624 116.814L76.0055 190.837C76.4501 191.726 77.3393 192.393 78.2284 192.616C80.8959 193.727 84.008 192.616 85.1195 189.948L87.5647 184.391L51.7757 99.9199Z" fill="black"/>
</svg>
