<svg width="200" height="120" viewBox="0 0 200 120" fill="none" xmlns="http://www.w3.org/2000/svg">
<g clip-path="url(#clip0_17_72)">
<path fill-rule="evenodd" clip-rule="evenodd" d="M180.582 94.4821C158.806 110.566 127.169 119.104 99.9663 119.104C61.8426 119.104 27.4916 105.006 1.54626 81.5756C-0.505532 79.7224 1.3477 77.2073 3.79662 78.6634C31.8599 94.9454 66.4757 104.807 102.283 104.807C126.441 104.807 152.982 99.7771 177.405 89.4519C181.045 87.7972 184.156 91.8346 180.582 94.4821Z" fill="black"/>
<path fill-rule="evenodd" clip-rule="evenodd" d="M189.65 84.157C186.87 80.5829 171.25 82.4361 164.168 83.2965C162.05 83.5613 161.719 81.708 163.638 80.3181C176.081 71.5814 196.533 74.0965 198.916 77.0088C201.299 79.9872 198.254 100.439 186.605 110.235C184.818 111.757 183.097 110.963 183.891 108.977C186.539 102.425 192.429 87.6649 189.65 84.157Z" fill="black"/>
<path d="M56.7462 43.3196C56.7462 45.7685 57.011 47.7541 57.4743 49.2102C58.0038 50.6663 58.6656 52.2548 59.5922 53.9757C59.9232 54.5052 60.0556 55.0347 60.0556 55.498C60.0556 56.1599 59.6584 56.8217 58.798 57.4836L54.6282 60.2635C54.0325 60.6606 53.4369 60.8591 52.9074 60.8591C52.2455 60.8591 51.5836 60.5282 50.9218 59.9325C49.9951 58.9397 49.2009 57.8807 48.539 56.8217C47.8772 55.6966 47.2153 54.439 46.4872 52.9167C41.3246 59.0059 34.8383 62.0505 27.0283 62.0505C21.4686 62.0505 17.034 60.462 13.7909 57.285C10.5477 54.1081 8.89304 49.8721 8.89304 44.5771C8.89304 38.9513 10.8786 34.3844 14.916 30.9426C18.9535 27.5009 24.3146 25.7801 31.1319 25.7801C33.3822 25.7801 35.6987 25.9786 38.1477 26.3095C40.5966 26.6405 43.1117 27.17 45.7592 27.7657V22.934C45.7592 17.9038 44.7002 14.3959 42.6484 12.3441C40.5304 10.2923 36.9563 9.2995 31.8599 9.2995C29.5434 9.2995 27.1606 9.56424 24.7117 10.1599C22.2628 10.7556 19.8801 11.4837 17.5635 12.4103C16.5045 12.8736 15.7103 13.1383 15.247 13.2707C14.7837 13.4031 14.4527 13.4693 14.188 13.4693C13.2614 13.4693 12.7981 12.8074 12.7981 11.4175V8.17432C12.7981 7.11533 12.9304 6.32108 13.2614 5.85778C13.5923 5.39447 14.188 4.93116 15.1146 4.46785C17.4312 3.27648 20.211 2.28368 23.4542 1.48944C26.6973 0.629006 30.139 0.231884 33.7793 0.231884C41.6556 0.231884 47.4138 2.01893 51.1203 5.59303C54.7606 9.16712 56.6138 14.5945 56.6138 21.875V43.3196H56.7462ZM29.8743 53.38C32.0585 53.38 34.3088 52.9829 36.6916 52.1886C39.0743 51.3944 41.1923 49.9383 42.9793 47.9527C44.0383 46.6951 44.8326 45.3052 45.2297 43.7167C45.6268 42.1282 45.8915 40.2088 45.8915 37.9585V35.1786C43.9721 34.7153 41.9203 34.3182 39.8023 34.0534C37.6844 33.7887 35.6326 33.6563 33.5808 33.6563C29.1462 33.6563 25.9031 34.5167 23.7189 36.3038C21.5347 38.0908 20.4758 40.6059 20.4758 43.9153C20.4758 47.0261 21.27 49.3426 22.9247 50.9311C24.5132 52.5858 26.8297 53.38 29.8743 53.38ZM83.0224 60.5282C81.8311 60.5282 81.0368 60.3296 80.5073 59.8663C79.9778 59.4692 79.5145 58.5426 79.1174 57.285L63.5635 6.12252C63.1663 4.79878 62.9678 3.93835 62.9678 3.47505C62.9678 2.41605 63.4973 1.82037 64.5563 1.82037H71.0426C72.3001 1.82037 73.1606 2.01893 73.6239 2.48224C74.1534 2.87936 74.5505 3.80598 74.9476 5.06353L86.067 48.8793L96.3922 5.06353C96.7231 3.73979 97.1202 2.87936 97.6497 2.48224C98.1792 2.08512 99.1058 1.82037 100.297 1.82037H105.592C106.85 1.82037 107.71 2.01893 108.24 2.48224C108.769 2.87936 109.232 3.80598 109.497 5.06353L119.955 49.4088L131.405 5.06353C131.802 3.73979 132.266 2.87936 132.729 2.48224C133.258 2.08512 134.119 1.82037 135.31 1.82037H141.465C142.524 1.82037 143.12 2.34987 143.12 3.47505C143.12 3.80598 143.054 4.13691 142.988 4.53404C142.922 4.93116 142.789 5.46065 142.524 6.18871L126.573 57.3512C126.176 58.675 125.713 59.5354 125.184 59.9325C124.654 60.3296 123.794 60.5944 122.668 60.5944H116.976C115.719 60.5944 114.858 60.3958 114.329 59.9325C113.799 59.4692 113.336 58.6088 113.071 57.285L102.812 14.5945L92.6195 57.2189C92.2886 58.5426 91.8915 59.403 91.362 59.8663C90.8325 60.3296 89.9059 60.5282 88.7145 60.5282H83.0224ZM168.073 62.3153C164.631 62.3153 161.189 61.9181 157.88 61.1239C154.571 60.3296 151.989 59.4692 150.268 58.4764C149.209 57.8807 148.481 57.2189 148.217 56.6232C147.952 56.0275 147.819 55.3656 147.819 54.7699V51.3944C147.819 50.0045 148.349 49.3426 149.342 49.3426C149.739 49.3426 150.136 49.4088 150.533 49.5412C150.93 49.6735 151.526 49.9383 152.188 50.203C154.438 51.1958 156.887 51.9901 159.468 52.5196C162.116 53.0491 164.697 53.3138 167.345 53.3138C171.514 53.3138 174.758 52.5858 177.008 51.1297C179.258 49.6735 180.45 47.5556 180.45 44.8419C180.45 42.9887 179.854 41.4664 178.663 40.2088C177.471 38.9513 175.221 37.8261 171.978 36.7671L162.381 33.7887C157.549 32.2664 153.975 30.016 151.791 27.0376C149.606 24.1254 148.481 20.8822 148.481 17.4405C148.481 14.6606 149.077 12.2117 150.268 10.0937C151.46 7.97576 153.048 6.12252 155.034 4.66641C157.019 3.14411 159.27 2.01893 161.917 1.22469C164.565 0.430445 167.345 0.0995102 170.257 0.0995102C171.713 0.0995102 173.235 0.165697 174.691 0.364258C176.214 0.562819 177.604 0.827567 178.994 1.09231C180.317 1.42325 181.575 1.75418 182.766 2.15131C183.958 2.54843 184.884 2.94555 185.546 3.34267C186.473 3.87217 187.134 4.40166 187.532 4.99735C187.929 5.52684 188.127 6.2549 188.127 7.18151V10.2923C188.127 11.6822 187.598 12.4103 186.605 12.4103C186.076 12.4103 185.215 12.1455 184.09 11.616C180.317 9.89518 176.081 9.03475 171.382 9.03475C167.609 9.03475 164.631 9.63043 162.579 10.888C160.527 12.1455 159.468 14.065 159.468 16.7786C159.468 18.6319 160.13 20.2203 161.454 21.4779C162.778 22.7355 165.227 23.993 168.735 25.1182L178.133 28.0966C182.899 29.6189 186.34 31.7369 188.392 34.4505C190.444 37.1642 191.437 40.275 191.437 43.7167C191.437 46.5628 190.841 49.144 189.716 51.3944C188.524 53.6448 186.936 55.6304 184.884 57.2189C182.832 58.8735 180.383 60.0649 177.537 60.9253C174.559 61.8519 171.448 62.3153 168.073 62.3153Z" fill="black"/>
</g>
<defs>
<clipPath id="clip0_17_72">
<rect width="200" height="119.403" fill="white"/>
</clipPath>
</defs>
</svg>
