<svg width="200" height="46" viewBox="0 0 200 46" fill="none" xmlns="http://www.w3.org/2000/svg">
<path d="M8.10716 2.20802C11.0551 0.590212 14.4989 0.0943451 17.8233 0.276787C19.7031 0.371126 21.5782 0.695467 23.3527 1.33011C25.6808 2.15968 27.8249 3.5888 29.3406 5.55668C30.864 7.49882 31.77 9.87446 32.1349 12.3039C32.3602 13.7712 32.3961 15.2596 32.3766 16.741C29.1254 16.7456 25.8742 16.7363 22.6237 16.7456C22.6269 15.2308 22.591 13.6714 22.032 12.2415C21.6086 11.1149 20.8173 10.1208 19.7686 9.51893C18.7511 8.95757 17.5723 8.73615 16.4184 8.7455C15.6177 8.76578 14.7967 8.84842 14.0583 9.18212C13.2327 9.54232 12.5029 10.1887 12.1723 11.0401C11.6741 12.2867 11.6991 13.8016 12.4709 14.9337C13.1274 15.867 14.1862 16.4096 15.2388 16.7761C17.559 17.5464 19.8762 18.326 22.1949 19.1002C24.4692 19.8783 26.7154 20.8482 28.6318 22.3226C30.3931 23.6558 31.7747 25.5153 32.4397 27.6298C33.0058 29.4511 33.1664 31.3838 33.0159 33.2808C32.9067 34.5953 32.6775 35.9082 32.2199 37.1487C31.4082 39.3817 29.9479 41.3885 28.012 42.7755C25.5958 44.5532 22.623 45.4139 19.6649 45.6884H14.9651C13.7363 45.5192 12.5014 45.357 11.3053 45.0155C8.55391 44.2904 5.92332 42.8395 4.12074 40.601C2.7532 38.9263 1.87062 36.8914 1.43791 34.7816C1.25625 33.9326 1.15801 33.0695 1.07848 32.2064C1.02079 31.2755 1.05899 30.3414 1.04964 29.409C4.32111 29.409 7.5918 29.4082 10.8625 29.4097C10.8524 30.7048 10.8758 32.0279 11.2827 33.2706C11.6718 34.5399 12.4904 35.7016 13.6389 36.3885C14.9557 37.1885 16.5431 37.3943 18.058 37.3218C19.18 37.2571 20.3463 36.9639 21.2172 36.2178C22.014 35.5418 22.4 34.4807 22.4093 33.4539C22.4187 32.498 22.1856 31.4821 21.5041 30.7749C20.6114 29.8214 19.3336 29.3926 18.1181 29.0168C16.3973 28.4663 14.6688 27.9362 12.9442 27.3959C11.9961 27.0863 11.0356 26.8088 10.1078 26.4408C8.05103 25.6634 6.08549 24.5392 4.56281 22.9331C3.4471 21.7612 2.63703 20.3173 2.13883 18.7821C1.71235 17.4785 1.53693 16.1063 1.47533 14.7403C1.3693 12.1433 1.84879 9.48385 3.09859 7.18774C4.24002 5.0881 6.00596 3.34243 8.10716 2.20802Z" fill="black"/>
<path d="M79.4925 0.43194C81.7909 0.12943 84.1385 0.191024 86.4214 0.592551C88.1834 0.912993 89.9104 1.48449 91.4713 2.37097C93.7752 3.65585 95.6386 5.69858 96.7348 8.09527C97.9986 10.7812 98.3003 13.8071 98.2115 16.7417C94.9618 16.7425 91.7122 16.741 88.4625 16.7425C88.4773 15.3118 88.4407 13.8469 87.9628 12.4824C87.5628 11.2919 86.7808 10.2004 85.683 9.56415C84.4847 8.86168 83.0493 8.67612 81.6826 8.77201C80.5178 8.85076 79.2976 9.26008 78.5327 10.184C77.6299 11.3083 77.4661 12.9175 77.9519 14.2538C78.3308 15.2557 79.2227 15.9582 80.1653 16.4042C80.9239 16.7605 81.7387 16.9725 82.5246 17.2587C83.7674 17.6734 85.011 18.0874 86.2545 18.5014C87.6205 18.9638 88.9997 19.3965 90.3252 19.9688C92.6579 20.9496 94.9049 22.3101 96.5087 24.3022C97.445 25.4748 98.1031 26.8587 98.482 28.3081C98.8087 29.5501 98.9061 30.8404 98.9093 32.1214C98.9007 33.9014 98.6169 35.6892 97.9838 37.3561C97.1394 39.6343 95.5583 41.6146 93.5615 42.9907C91.2077 44.621 88.3729 45.4108 85.5489 45.6884H81.0947C78.606 45.4529 76.1048 44.9188 73.8797 43.7423C71.4791 42.5128 69.4917 40.4786 68.3651 38.0235C67.0943 35.3508 66.8183 32.3327 66.8845 29.4097C70.1591 29.4082 73.4337 29.409 76.7083 29.409C76.6849 30.9137 76.7465 32.4691 77.3492 33.8718C77.831 35.0358 78.7237 36.0314 79.855 36.5951C81.1812 37.2594 82.7063 37.4138 84.1689 37.3007C85.2628 37.2033 86.3956 36.868 87.2034 36.0891C87.9877 35.3368 88.3066 34.2055 88.2489 33.1412C88.2052 32.3678 88.0142 31.5679 87.509 30.9605C86.8011 30.0873 85.7399 29.6047 84.6967 29.2569C82.4911 28.5264 80.2612 27.8683 78.047 27.1635C76.1134 26.5538 74.1853 25.835 72.4981 24.6896C70.365 23.2948 68.6949 21.1663 67.9651 18.7143C67.1239 15.9184 67.0974 12.891 67.8045 10.0631C68.5 7.42397 70.0492 4.99454 72.2283 3.33697C74.3186 1.71449 76.8868 0.791366 79.4925 0.43194Z" fill="black"/>
<path d="M154.163 0.902073C157.984 0.870887 161.807 0.896616 165.629 0.892717C165.633 5.11694 165.629 9.34038 165.63 13.5646C165.646 17.4263 165.592 21.2887 165.659 25.1504C169.217 21.5468 172.821 17.99 176.404 14.4113C180.926 9.90018 185.448 5.38826 189.969 0.875565C192.8 3.69951 195.623 6.53125 198.451 9.35832C191.301 16.4954 184.146 23.627 176.995 30.7625C176.01 31.7277 175.06 32.728 174.049 33.6659C182.175 33.7135 190.302 33.6807 198.428 33.6909C198.433 37.5097 198.431 41.3285 198.43 45.1473C183.676 45.148 168.922 45.148 154.168 45.1473C154.163 30.3984 154.176 15.6502 154.163 0.902073Z" fill="black"/>
<path d="M32.0249 1.0814C35.9474 1.0814 39.8699 1.07984 43.7924 1.08296C45.8016 4.94776 47.8108 8.81333 49.82 12.6789C49.937 12.8988 50.0375 13.1288 50.1833 13.3323C50.3252 13.1529 50.4133 12.9409 50.5209 12.7405C52.5403 8.85466 54.5604 4.96803 56.5797 1.08218C60.3424 1.08218 64.1042 1.07984 67.8661 1.07672C63.8423 8.12411 59.7716 15.145 55.7642 22.2017C60.0905 29.7738 64.3997 37.3561 68.7082 44.9391C64.7872 44.9492 60.8655 44.9251 56.9446 44.9368C56.4659 44.129 56.0425 43.2878 55.5864 42.4676C53.6177 38.8413 51.646 35.2175 49.6734 31.5944C49.6547 31.592 49.6165 31.5866 49.5978 31.5842C47.2159 36.0338 44.8411 40.4872 42.4631 44.9391C38.6778 44.9407 34.8933 44.9407 31.1088 44.9391C35.4219 37.4652 39.7374 29.9929 44.0513 22.5191C40.6511 16.4556 37.244 10.3953 33.8416 4.3326C33.2381 3.24809 32.6167 2.17293 32.0249 1.0814Z" fill="black"/>
<path d="M99.356 1.08219C103.001 1.08063 106.647 1.08063 110.292 1.08219C111.823 10.4787 113.354 19.8752 114.892 29.271C114.983 29.2647 115.073 29.2484 115.164 29.2211C116.54 19.8378 117.944 10.4584 119.332 1.07673C122.581 1.07361 125.831 1.07907 129.081 1.07439C129.17 1.09778 129.372 1.00968 129.375 1.16405C130.762 10.5325 132.153 19.9002 133.537 29.2686C133.628 29.246 133.818 29.3201 133.815 29.1634C135.29 20.1559 136.761 11.1477 138.228 2.13941C138.306 1.79246 138.304 1.41198 138.426 1.08452C141.827 1.07439 145.229 1.08686 148.631 1.07907C147.273 8.45547 145.872 15.8249 144.499 23.1989C143.137 30.4467 141.792 37.6976 140.419 44.943C136.36 44.9344 132.3 44.9438 128.24 44.9383C126.872 35.5629 125.501 26.1866 124.131 16.8111C124.067 16.8143 123.936 16.8197 123.87 16.8221C122.493 26.1936 121.126 35.5675 119.754 44.9407C115.692 44.9383 111.631 44.9414 107.57 44.9391C104.832 30.3196 102.093 15.7009 99.356 1.08219Z" fill="black"/>
<path d="M145.777 40.4864C146.726 40.2331 147.835 40.6244 148.354 41.4735C149.039 42.519 148.728 44.1088 147.638 44.7551C146.585 45.4443 144.988 45.0833 144.377 43.9708C143.836 43.0679 144.004 41.8236 144.739 41.0782C145.019 40.7851 145.39 40.5948 145.777 40.4864ZM145.934 40.8708C144.773 41.1024 144.161 42.5471 144.662 43.5825C144.947 44.2896 145.716 44.7294 146.467 44.7029C147.087 44.6834 147.694 44.3364 148.002 43.793C148.452 43.0476 148.366 41.9998 147.742 41.3776C147.279 40.9153 146.569 40.7071 145.934 40.8708Z" fill="black"/>
<path d="M145.398 41.5078C145.969 41.5374 146.557 41.4384 147.114 41.6068C147.673 41.7963 147.689 42.7607 147.089 42.9096C147.506 43.0968 147.467 43.6129 147.532 43.991C147.312 43.9848 147.093 43.977 146.875 43.9669C146.826 43.7314 146.82 43.4803 146.714 43.262C146.523 43.1022 146.253 43.1802 146.028 43.1654C146.026 43.4343 146.028 43.7033 146.028 43.9731C145.817 43.9793 145.606 43.9801 145.397 43.9754C145.398 43.1529 145.394 42.3303 145.398 41.5078ZM146.03 42.0278C146.027 42.243 146.026 42.4582 146.028 42.6742C146.261 42.6633 146.516 42.7069 146.734 42.5993C146.935 42.5034 146.916 42.1713 146.711 42.0902C146.497 41.9982 146.254 42.038 146.03 42.0278Z" fill="black"/>
</svg>
