<svg width="200" height="60" viewBox="0 0 200 60" fill="none" xmlns="http://www.w3.org/2000/svg">
<g clip-path="url(#clip0_17_91)">
<path d="M186.846 25.5412H174.897V13.2091C174.897 11.5648 173.965 10.1398 172.65 9.37243C172.047 9.04357 171.335 8.82433 170.567 8.82433H130.501C129.46 8.82433 128.474 9.208 127.706 9.81091C127.158 10.1946 126.665 10.6879 126.281 11.2908L112.688 36.5032L100.411 12.4418C100.192 11.51 99.6437 10.6331 98.8764 10.0301C97.6157 8.87915 95.6974 8.55029 94.0531 9.31762C92.6829 9.97534 91.8059 11.2908 91.6415 12.7158L78.8161 36.5032L66.0454 11.4004C65.607 10.4138 64.7848 9.70129 63.9079 9.31762C63.305 9.04358 62.6473 8.82433 61.9347 8.82433H29.5423C28.775 8.82433 28.0624 8.98876 27.4595 9.37243C26.0893 10.085 25.2123 11.5648 25.2123 13.2091V25.5412H13.209C10.7974 25.5412 8.87909 27.4596 8.87909 29.8712C8.87909 32.2828 10.7974 34.2012 13.209 34.2012H25.1575V46.1496C25.1575 48.5613 27.0759 50.4796 29.4875 50.4796C31.8991 50.4796 33.8174 48.5613 33.8174 46.1496V34.2012H54.4806C56.8922 34.2012 58.8106 32.2828 58.8106 29.8712C58.8106 27.4596 56.8922 25.5412 54.4806 25.5412H33.8174V17.5391H59.3587L74.6505 47.5199C74.7602 47.7939 74.8698 48.068 75.0342 48.2872C76.1852 50.2055 78.5968 51.0277 80.6796 49.9863C81.9402 49.3834 82.8172 48.1776 83.0364 46.917L95.9715 22.9652L108.468 47.5199C108.578 47.7939 108.687 48.068 108.852 48.2872C110.003 50.2055 112.414 51.0277 114.497 49.9863C115.758 49.3834 116.635 48.1776 116.854 46.917L132.694 17.4842H166.073V25.4864H137.133C134.777 25.4864 132.913 27.35 132.803 29.652V45.8756C132.803 48.2872 134.722 50.2055 137.133 50.2055H169.087C169.526 50.37 170.019 50.2055 170.512 50.2055C172.924 50.2055 174.842 48.2872 174.842 45.8756V34.1463H186.791C189.202 34.1463 191.121 32.228 191.121 29.8164C191.176 27.5144 189.202 25.5412 186.846 25.5412ZM166.182 41.6004H141.409V34.256H166.182V41.6004Z" fill="white"/>
<path d="M170.512 8.87914C171.28 8.87914 171.992 9.04357 172.595 9.42724C173.965 10.1398 174.842 11.6196 174.842 13.2639V25.5961H186.791C189.203 25.5961 191.121 27.5144 191.121 29.926C191.121 32.3376 189.203 34.256 186.791 34.256H174.842V45.9852C174.842 48.3968 172.924 50.3152 170.512 50.3152C170.019 50.3152 137.243 50.3152 137.243 50.3152C134.831 50.3152 132.913 48.3968 132.913 45.9852V29.7068C133.023 27.4048 134.941 25.5412 137.243 25.5412H166.183V17.5391H132.804L116.964 46.9718C116.69 48.2872 115.867 49.4382 114.607 50.0411C114.004 50.3152 113.346 50.4796 112.743 50.4796C111.263 50.4796 109.784 49.7123 109.016 48.342C108.852 48.1228 108.742 47.8487 108.633 47.5747L96.1359 23.02L83.4749 47.0266C82.9268 48.2872 82.1047 49.4382 80.8441 50.0959C80.2412 50.37 79.5835 50.5344 78.9806 50.5344C77.5007 50.5344 76.0208 49.7671 75.2535 48.3968C75.0891 48.1776 74.9795 47.9035 74.8698 47.6295L59.578 17.6487H34.0367V25.6509H54.6999C57.1115 25.6509 59.0299 27.5692 59.0299 29.9808C59.0299 32.3924 57.1115 34.3108 54.6999 34.3108H34.0367V46.2593C34.0367 48.6709 32.1184 50.5892 29.7068 50.5892C27.2951 50.5892 25.3768 48.6709 25.3768 46.2593V34.3108H13.2091C10.7975 34.3108 8.87914 32.3924 8.87914 29.9808C8.87914 27.5692 10.7975 25.6509 13.2091 25.6509H25.1576V13.3187C25.1576 11.6744 26.0893 10.2494 27.4048 9.48205C28.0077 9.15319 28.7202 8.93396 29.4875 8.93396H61.88C62.5925 8.93396 63.2502 9.09838 63.8531 9.42724C64.7849 9.81091 65.5522 10.5234 65.9907 11.51L78.8161 36.6676L91.6416 12.661C92.2993 11.3456 92.6281 10.1398 94.0532 9.48205C94.6561 9.208 95.3138 9.04357 95.9167 9.04357C97.0129 9.04357 98.0543 9.42724 98.8216 10.1946C99.5889 10.7975 99.9726 11.236 100.521 12.2773L112.634 36.6676L126.226 11.4552C126.555 10.8523 127.049 10.359 127.651 9.97533C128.419 9.37243 129.351 8.98876 130.447 8.98876H170.512M141.409 41.6004H166.183V34.256H141.409V41.6004ZM170.512 0H130.447C127.542 0 124.692 0.986572 122.39 2.74048C120.8 3.83667 119.485 5.31652 118.553 6.96081L118.498 7.07043L118.443 7.18004L112.908 17.4842C112.908 17.4842 106.495 4.87804 104.577 3.34338C102.165 1.26061 99.0956 0.109617 95.9167 0.109617C93.9436 0.109617 91.9704 0.54809 90.1617 1.42504C86.7087 3.06933 84.7904 6.13867 83.2009 9.70129L79.0354 17.4842L73.9381 7.50891C72.6226 4.82324 70.3754 2.63086 67.635 1.37024C65.8263 0.493286 63.8531 0.0548045 61.88 0.0548045H29.4875C27.2952 0.0548045 25.1028 0.602905 23.1844 1.64429C18.9093 3.94629 16.2784 8.44067 16.2784 13.2639V16.7169H13.2091C5.91943 16.7169 0 22.6363 0 29.926C0 37.2157 5.91943 43.1351 13.2091 43.1351H16.2784V46.2044C16.2784 53.4941 22.1979 59.4135 29.4875 59.4135C36.7772 59.4135 42.6966 53.4941 42.6966 46.2044V43.1351H54.4259C56.9471 43.1351 59.3587 42.4226 61.3867 41.162L66.5936 51.3565C66.8676 51.9594 67.1417 52.5075 67.4705 53.0556C69.8822 57.0019 74.1573 59.4135 78.7613 59.4135C80.7345 59.4135 82.7076 58.9751 84.5163 58.0981C87.7501 56.5634 90.5454 53.9326 91.9704 50.5892L95.7523 42.2033L100.466 51.4114C100.74 52.0143 101.014 52.5624 101.343 53.1104C103.754 57.0567 108.03 59.4683 112.634 59.4683C114.607 59.4683 116.58 59.0299 118.389 58.1529C121.403 56.6731 123.76 54.097 124.966 51.0277C126.939 55.8509 131.707 59.2491 137.243 59.2491H170.512C177.802 59.2491 183.722 53.5489 183.722 46.2593V43.1899H186.791C194.081 43.1899 200 37.2705 200 29.9808C200 22.6911 194.081 16.7717 186.791 16.7717H183.722V13.3187C183.722 8.44067 181.091 4.00109 176.816 1.69909C174.897 0.54809 172.705 0 170.512 0Z" fill="black"/>
</g>
<defs>
<clipPath id="clip0_17_91">
<rect width="200" height="60" fill="white"/>
</clipPath>
</defs>
</svg>
