<svg width="200" height="33" viewBox="0 0 200 33" fill="none" xmlns="http://www.w3.org/2000/svg">
<path d="M0.872727 15.4182C1.6 11.6364 4.94545 9.01819 9.6 9.01819C14.9818 9.01819 19.2 11.3455 19.2 18.6182V32.1455H14.5455L13.9636 29.2364C12.3636 31.2727 10.1818 32.5818 6.98182 32.5818C3.05455 32.5818 0 30.1091 0 25.6C0 21.0909 4.07273 18.1818 9.74545 18.1818H13.5273V17.1636C13.5273 14.5455 11.6364 13.8182 9.45454 13.8182C7.85455 13.8182 6.25455 14.4 5.52727 16.4364L0.872727 15.4182ZM8.29091 27.7818C10.9091 27.7818 13.5273 26.0364 13.5273 23.1273V22.6909H9.89091C7.41818 22.5455 5.96364 23.5636 5.96364 25.6C5.96364 26.6182 6.83636 27.7818 8.29091 27.7818Z" fill="black"/>
<path d="M52.4909 9.60001L45.2182 32.4364H40.2727L36.3455 17.7455L32.4182 32.5818H27.4727L20.2 9.74546H25.8727L29.9455 25.4546L33.8727 9.74546H39.1091L43.0364 25.4546L47.1091 9.74546L52.4909 9.60001Z" fill="black"/>
<path d="M75.8909 9.60001L71.8182 25.4546L67.8909 9.60001H62.6545L58.8727 25.4546L55.6727 16.2909L55.2364 17.3091L53.4909 23.2727L56.4 32.5818H61.3455L65.2727 17.7455L69.2 32.5818H74.2909L81.5636 9.60001H75.8909Z" fill="black"/>
<path d="M105.109 9.60001L101.036 25.4546L97.1091 9.60001H91.8727L88.0909 25.4546L84.8909 16.2909L84.4545 17.3091L82.5636 23.2727L85.6182 32.5818H90.5636L94.4909 17.7455L98.4182 32.5818H103.364L110.782 9.60001H105.109Z" fill="black"/>
<path d="M112.655 15.4182C113.382 11.6364 116.727 9.01819 121.382 9.01819C126.764 9.01819 130.982 11.3455 130.982 18.6182V32.1455H126.327L125.745 29.2364C124.145 31.2727 121.964 32.5818 118.764 32.5818C114.836 32.5818 111.782 30.1091 111.782 25.6C111.782 21.0909 115.855 18.1818 121.527 18.1818H125.309V17.1636C125.309 14.5455 123.418 13.8182 121.236 13.8182C119.636 13.8182 118.036 14.4 117.309 16.4364L112.655 15.4182ZM120.073 27.7818C122.691 27.7818 125.309 26.0364 125.309 23.1273V22.6909H121.527C119.055 22.6909 117.6 23.5636 117.6 25.6C117.745 26.6182 118.618 27.7818 120.073 27.7818Z" fill="black"/>
<path d="M131.982 32.5818V9.60001H137.655V13.3818C139.255 10.6182 141.873 9.3091 144.345 9.3091C145.364 9.3091 146.236 9.45455 147.109 9.74546L146.091 14.9818C145.364 14.5455 144.636 14.2546 143.764 14.2546C140.418 14.2546 137.655 17.0182 137.655 24.2909V32.4364L131.982 32.5818Z" fill="black"/>
<path d="M158.436 8.87273C160.764 8.87273 162.945 10.0364 163.964 11.3455V0H169.636V32.1455H163.964V29.8182C163.236 30.9818 161.2 32.5818 158.436 32.5818C151.6 32.5818 148.109 27.7818 148.109 20.8C148.109 13.8182 151.6 8.87273 158.436 8.87273ZM159.309 27.6364C162.218 27.6364 164.545 25.1636 164.545 20.6545C164.545 16.1455 162.218 13.6727 159.309 13.6727C156.4 13.6727 154.073 16.1455 154.073 20.6545C154.073 25.1636 156.4 27.6364 159.309 27.6364Z" fill="black"/>
<path d="M186.636 12.9455L183.291 16C182.273 14.5455 180.673 13.9636 179.509 13.9636C178.345 13.9636 177.327 14.6909 177.327 15.8546C177.327 16.8727 178.2 17.6 179.509 18.0364C182.709 19.2 187.8 20.2182 187.8 25.0182C187.8 29.2364 184.6 32.5818 179.655 32.5818C174.855 32.5818 171.655 29.2364 170.636 26.4727L175.145 24C176.018 26.1818 177.473 27.7818 179.8 27.7818C181.545 27.7818 182.709 26.9091 182.709 25.3091C182.709 23.4182 179.8 22.9818 177.036 21.8182C174.564 20.8 172.382 19.2 172.382 15.7091C172.382 12.2182 175.291 9.01819 179.655 9.01819C182.564 9.16364 185.327 10.7636 186.636 12.9455Z" fill="black"/>
<path d="M192.582 25.0182C194.764 25.0182 196.364 26.6182 196.364 28.8C196.364 30.9818 194.764 32.5818 192.582 32.5818C190.4 32.5818 188.8 30.9818 188.8 28.8C188.8 26.6182 190.4 25.0182 192.582 25.0182Z" fill="black"/>
</svg>
