<svg width="200" height="135" viewBox="0 0 200 135" fill="none" xmlns="http://www.w3.org/2000/svg">
<g clip-path="url(#clip0_22_281)">
<path d="M148.182 2.54875L140.315 79.0703L135.837 2.54875H114.056L123.814 132.499H145.743L157.079 60.7757L165.022 132.499H189.819L200 2.54875H178.416L174.086 79.1423L167.275 2.54875H148.182Z" fill="black"/>
<path d="M78.9359 67.5243C78.9359 58.7873 79.007 51.5384 79.15 45.7744C79.294 40.0115 79.598 35.4303 80.062 32.033C80.527 28.6356 81.207 26.27 82.101 24.9351C82.995 23.6002 84.1929 22.9327 85.6959 22.9327C87.1979 22.9327 88.3959 23.6002 89.2899 24.9351C90.1839 26.27 90.8639 28.6356 91.3289 32.033C91.7939 35.4303 92.098 40.0115 92.241 45.7744C92.384 51.5384 92.455 58.7873 92.455 67.5243C92.455 76.2603 92.384 83.5103 92.241 89.2733C92.098 95.0372 91.7939 99.6174 91.3289 103.015C90.8639 106.412 90.1839 108.778 89.2899 110.113C88.3959 111.447 87.1979 112.115 85.6959 112.115C84.1929 112.115 82.995 111.447 82.101 110.113C81.207 108.778 80.527 106.412 80.062 103.015C79.598 99.6174 79.294 95.0372 79.15 89.2733C79.007 83.5103 78.9359 76.2603 78.9359 67.5243ZM58.335 67.5243C58.335 79.6577 58.7999 90.0018 59.7299 98.5556C60.6599 107.11 62.1979 114.086 64.3439 119.486C66.4899 124.886 69.3149 128.738 72.8199 131.043C76.3249 133.349 80.6169 134.501 85.6959 134.501C90.7739 134.501 95.0659 133.349 98.5709 131.043C102.076 128.738 104.902 124.886 107.047 119.486C109.193 114.086 110.731 107.11 111.661 98.5556C112.591 90.0018 113.056 79.6577 113.056 67.5243C113.056 55.39 112.591 45.0469 111.661 36.492C110.731 27.9382 109.193 20.9614 107.047 15.5616C104.902 10.1619 102.076 6.21927 98.5709 3.73157C95.0659 1.24386 90.7739 0 85.6959 0C80.6169 0 76.3249 1.24386 72.8199 3.73157C69.3149 6.21927 66.4899 10.1619 64.3439 15.5616C62.1979 20.9614 60.6599 27.9382 59.7299 36.492C58.7999 45.0469 58.335 55.39 58.335 67.5243Z" fill="black"/>
<path d="M0 2.54875V132.499H19.957V78.9902H32.189V132.499H52.146V2.54875H32.189V50.2335H19.957V2.54875H0Z" fill="black"/>
</g>
<defs>
<clipPath id="clip0_22_281">
<rect width="200" height="134.501" fill="white"/>
</clipPath>
</defs>
</svg>
