<svg width="200" height="202" viewBox="0 0 200 202" fill="none" xmlns="http://www.w3.org/2000/svg">
<rect width="200" height="200" fill="white"/>
<path fill-rule="evenodd" clip-rule="evenodd" d="M99.4342 40.0799L106.333 31.7032C153.688 38.9706 150.685 50.873 116.68 56.8333C128.075 60.8401 168.463 68.2662 119.637 82.9488C127.583 85.1079 172.391 96.1992 116.68 106.108C125.507 110.094 172.34 115.811 118.651 130.252C132.553 132.537 168.277 140.151 121.115 155.382C138.945 157.247 140.962 157.866 145.752 166.223L146.245 199.73L61 201.208L62.4782 149.962L64.4492 150.455C154.773 142.118 128.263 139.107 62.4782 135.18L62.971 125.325C181.677 118.29 93.7398 114.643 63.4637 110.05V102.166C85.6523 97.8017 186.933 96.0307 63.4637 86.8908V77.0359C133.05 73.2936 156.41 68.4419 62.4782 60.7753L61.9855 51.9058C137.431 49.4113 138.045 45.1965 99.4342 40.0799Z" fill="black"/>
</svg>
