<svg width="201" height="172" viewBox="0 0 201 172" fill="none" xmlns="http://www.w3.org/2000/svg">
<path d="M73.3921 98.3039L88.0912 98.1692L88.1613 107.578C88.1613 150.224 77.1633 173.315 46.8436 171.663C15.706 169.96 0.597411 145.128 1.00688 85.4174C1.182 58.0248 3.63376 36.7815 12.6003 21.2229C21.31 6.10553 35.0165 0.00471497 51.0217 0.00471497C62.8955 0.00471497 71.7801 4.64783 79.0537 12.7332C86.3273 21.1373 90.5186 33.3144 86.2454 46.2622C83.4784 54.6662 82.3809 58.1207 77.1504 62.7027C74.4535 65.0548 69.5851 66.0593 66.8646 65.8266C63.0703 65.5081 52.4342 62.0042 51.6987 48.7124C51.3835 43.1263 51.8855 40.5904 54.5007 36.3148C57.2794 31.7698 61.8912 30.9369 65.7671 30.9369C66.6428 30.9369 71.2427 31.2921 73.9981 35.0042C73.9981 35.0042 75.1539 36.0945 76.4265 38.6795C76.7418 39.3043 77.1504 40.5783 77.9326 40.7499C77.7575 40.7131 78.493 41.3991 78.5864 38.1894C78.6448 36.1681 78.0027 33.6445 77.9326 33.3626C74.9671 20.7934 65.919 14.8763 55.4112 15.2191C47.4136 15.4886 37.945 20.9768 34.5476 29.6873C31.3953 38.716 29.6325 57.8273 29.6325 80.2457C29.6325 105.764 29.5391 125.598 32.2127 134.944C34.6411 144.279 39.2878 155.452 52.294 155.672C64.6346 155.88 73.1926 146.251 73.3211 107.503L73.3921 98.3039Z" fill="black"/>
<path d="M111.661 17.842C103.57 20.9292 99.8111 30.3867 99.3439 31.5139C98.8886 32.6409 98.4216 35.2748 98.4216 36.1814C98.4216 38.6071 99.379 39.5625 99.2856 39.7708C101.189 35.6179 104.329 31.3056 110.097 30.35C114.51 29.615 116.985 30.2397 119.682 32.2979C120.99 33.2902 122.332 34.454 123.243 35.9732C124.877 38.6928 125.52 40.5918 125.52 44.8548C125.52 50.7719 124.527 54.7043 120.884 59.0655C117.008 63.4267 113.529 65.1174 108.439 64.9948C102.578 64.8478 99.5071 62.8876 94.9189 58.257C90.3424 53.6139 88.3575 47.4397 88.0422 39.8931C87.4935 27.0419 92.1752 17.4251 101.212 9.54798C110.423 1.51151 121.363 0.286525 134.905 0.212825C150.701 0.127081 161.244 4.68439 169.778 16.7022C172.347 20.3283 173.631 23.8813 175.219 28.5733C176.538 32.4569 176.865 38.6188 176.865 48.5787L176.597 132.876C176.597 141.905 174.705 154.952 182.644 155.001C185.318 155.013 190.443 154.977 190.233 142.162L190.105 115.615L200.776 115.811L200.939 132.092C201.488 156.251 198.663 171.48 174.25 171.784C162.014 171.943 152.044 166.393 148.401 150.517C139.914 166.394 130.013 171.882 117.404 171.882C107.702 171.882 96.2489 166.786 89.9443 158.994C83.628 151.215 83.8966 140.128 84.165 128.294C84.597 108.533 93.9487 96.59 109.266 86.9336L127.269 75.4056C140.848 67.6141 148.635 55.2042 148.635 42.4381C148.635 34.9652 146.627 28.7173 142.739 24.0497C138.863 19.3821 128.74 11.897 112.501 17.5202M147.796 75.5897C137.136 87.1544 124.983 98.6335 120.569 103.73C116.028 108.973 111.101 118.541 110.202 124.691C106.676 148.837 116.892 154.987 124.177 154.999C143.943 155.036 148.601 128.562 148.274 104.673L147.796 75.5897Z" fill="black"/>
</svg>
