<svg id="my-svg" width="100%" xmlns="http://www.w3.org/2000/svg" xmlns:xlink="http://www.w3.org/1999/xlink" class="classDiagram" style="max-width: 1192.87px; background-color: transparent;" viewBox="0 0 1192.8671875 1114" role="graphics-document document" aria-roledescription="class"><style>#my-svg{font-family:"trebuchet ms",verdana,arial,sans-serif;font-size:16px;fill:#1e293b;}@keyframes edge-animation-frame{from{stroke-dashoffset:0;}}@keyframes dash{to{stroke-dashoffset:0;}}#my-svg .edge-animation-slow{stroke-dasharray:9,5!important;stroke-dashoffset:900;animation:dash 50s linear infinite;stroke-linecap:round;}#my-svg .edge-animation-fast{stroke-dasharray:9,5!important;stroke-dashoffset:900;animation:dash 20s linear infinite;stroke-linecap:round;}#my-svg .error-icon{fill:#eff6ff;}#my-svg .error-text{fill:#100900;stroke:#100900;}#my-svg .edge-thickness-normal{stroke-width:1px;}#my-svg .edge-thickness-thick{stroke-width:3.5px;}#my-svg .edge-pattern-solid{stroke-dasharray:0;}#my-svg .edge-thickness-invisible{stroke-width:0;fill:none;}#my-svg .edge-pattern-dashed{stroke-dasharray:3;}#my-svg .edge-pattern-dotted{stroke-dasharray:2;}#my-svg .marker{fill:#475569;stroke:#475569;}#my-svg .marker.cross{stroke:#475569;}#my-svg svg{font-family:"trebuchet ms",verdana,arial,sans-serif;font-size:16px;}#my-svg p{margin:0;}#my-svg g.classGroup text{fill:#2563eb;stroke:none;font-family:"trebuchet ms",verdana,arial,sans-serif;font-size:10px;}#my-svg g.classGroup text .title{font-weight:bolder;}#my-svg .nodeLabel,#my-svg .edgeLabel{color:#1e293b;}#my-svg .edgeLabel .label rect{fill:#dbeafe;}#my-svg .label text{fill:#1e293b;}#my-svg .labelBkg{background:#dbeafe;}#my-svg .edgeLabel .label span{background:#dbeafe;}#my-svg .classTitle{font-weight:bolder;}#my-svg .node rect,#my-svg .node circle,#my-svg .node ellipse,#my-svg .node polygon,#my-svg .node path{fill:#dbeafe;stroke:#2563eb;stroke-width:1px;}#my-svg .divider{stroke:#2563eb;stroke-width:1;}#my-svg g.clickable{cursor:pointer;}#my-svg g.classGroup rect{fill:#dbeafe;stroke:#2563eb;}#my-svg g.classGroup line{stroke:#2563eb;stroke-width:1;}#my-svg .classLabel .box{stroke:none;stroke-width:0;fill:#dbeafe;opacity:0.5;}#my-svg .classLabel .label{fill:#2563eb;font-size:10px;}#my-svg .relation{stroke:#475569;stroke-width:1;fill:none;}#my-svg .dashed-line{stroke-dasharray:3;}#my-svg .dotted-line{stroke-dasharray:1 2;}#my-svg #compositionStart,#my-svg .composition{fill:#475569!important;stroke:#475569!important;stroke-width:1;}#my-svg #compositionEnd,#my-svg .composition{fill:#475569!important;stroke:#475569!important;stroke-width:1;}#my-svg #dependencyStart,#my-svg .dependency{fill:#475569!important;stroke:#475569!important;stroke-width:1;}#my-svg #dependencyStart,#my-svg .dependency{fill:#475569!important;stroke:#475569!important;stroke-width:1;}#my-svg #extensionStart,#my-svg .extension{fill:transparent!important;stroke:#475569!important;stroke-width:1;}#my-svg #extensionEnd,#my-svg .extension{fill:transparent!important;stroke:#475569!important;stroke-width:1;}#my-svg #aggregationStart,#my-svg .aggregation{fill:transparent!important;stroke:#475569!important;stroke-width:1;}#my-svg #aggregationEnd,#my-svg .aggregation{fill:transparent!important;stroke:#475569!important;stroke-width:1;}#my-svg #lollipopStart,#my-svg .lollipop{fill:#dbeafe!important;stroke:#475569!important;stroke-width:1;}#my-svg #lollipopEnd,#my-svg .lollipop{fill:#dbeafe!important;stroke:#475569!important;stroke-width:1;}#my-svg .edgeTerminals{font-size:11px;line-height:initial;}#my-svg .classTitleText{text-anchor:middle;font-size:18px;fill:#1e293b;}#my-svg .label-icon{display:inline-block;height:1em;overflow:visible;vertical-align:-0.125em;}#my-svg .node .label-icon path{fill:currentColor;stroke:revert;stroke-width:revert;}#my-svg :root{--mermaid-font-family:"trebuchet ms",verdana,arial,sans-serif;}</style><g><defs><marker id="my-svg_class-aggregationStart" class="marker aggregation class" refX="18" refY="7" markerWidth="190" markerHeight="240" orient="auto"><path d="M 18,7 L9,13 L1,7 L9,1 Z"/></marker></defs><defs><marker id="my-svg_class-aggregationEnd" class="marker aggregation class" refX="1" refY="7" markerWidth="20" markerHeight="28" orient="auto"><path d="M 18,7 L9,13 L1,7 L9,1 Z"/></marker></defs><defs><marker id="my-svg_class-extensionStart" class="marker extension class" refX="18" refY="7" markerWidth="190" markerHeight="240" orient="auto"><path d="M 1,7 L18,13 V 1 Z"/></marker></defs><defs><marker id="my-svg_class-extensionEnd" class="marker extension class" refX="1" refY="7" markerWidth="20" markerHeight="28" orient="auto"><path d="M 1,1 V 13 L18,7 Z"/></marker></defs><defs><marker id="my-svg_class-compositionStart" class="marker composition class" refX="18" refY="7" markerWidth="190" markerHeight="240" orient="auto"><path d="M 18,7 L9,13 L1,7 L9,1 Z"/></marker></defs><defs><marker id="my-svg_class-compositionEnd" class="marker composition class" refX="1" refY="7" markerWidth="20" markerHeight="28" orient="auto"><path d="M 18,7 L9,13 L1,7 L9,1 Z"/></marker></defs><defs><marker id="my-svg_class-dependencyStart" class="marker dependency class" refX="6" refY="7" markerWidth="190" markerHeight="240" orient="auto"><path d="M 5,7 L9,13 L1,7 L9,1 Z"/></marker></defs><defs><marker id="my-svg_class-dependencyEnd" class="marker dependency class" refX="13" refY="7" markerWidth="20" markerHeight="28" orient="auto"><path d="M 18,7 L9,13 L14,7 L9,1 Z"/></marker></defs><defs><marker id="my-svg_class-lollipopStart" class="marker lollipop class" refX="13" refY="7" markerWidth="190" markerHeight="240" orient="auto"><circle stroke="black" fill="transparent" cx="7" cy="7" r="6"/></marker></defs><defs><marker id="my-svg_class-lollipopEnd" class="marker lollipop class" refX="1" refY="7" markerWidth="190" markerHeight="240" orient="auto"><circle stroke="black" fill="transparent" cx="7" cy="7" r="6"/></marker></defs><g class="root"><g class="clusters"/><g class="edgePaths"><path d="M323.461,352L323.461,395.167C323.461,438.333,323.461,524.667,345.487,580.263C367.513,635.86,411.565,660.719,433.591,673.149L455.617,685.579" id="edgeNote1" class="edge-thickness-normal edge-pattern-dotted relation" style="fill: none;;;fill: none" data-edge="true" data-et="edge" data-id="edgeNote1" data-points="W3sieCI6MzIzLjQ2MDkzNzUsInkiOjM1Mn0seyJ4IjozMjMuNDYwOTM3NSwieSI6NjExfSx7IngiOjQ1NS42MTcxODc1LCJ5Ijo2ODUuNTc4NzM0NTMxMzAyM31d"/><path d="M837.352,44L837.352,48.167C837.352,52.333,837.352,60.667,837.352,69C837.352,77.333,837.352,85.667,837.352,89.833L837.352,94" id="edgeNote2" class="edge-thickness-normal edge-pattern-dotted relation" style="fill: none;;;fill: none" data-edge="true" data-et="edge" data-id="edgeNote2" data-points="W3sieCI6ODM3LjM1MTU2MjUsInkiOjQ0fSx7IngiOjgzNy4zNTE1NjI1LCJ5Ijo2OX0seyJ4Ijo4MzcuMzUxNTYyNSwieSI6OTR9XQ=="/><path d="M837.352,591.25L837.352,594.542C837.352,597.833,837.352,604.417,815.326,620.138C793.299,635.86,749.247,660.719,727.221,673.149L705.195,685.579" id="id_BaseSection_Hero_1" class="edge-thickness-normal edge-pattern-solid relation" style=";;;" data-edge="true" data-et="edge" data-id="id_BaseSection_Hero_1" data-points="W3sieCI6ODM3LjM1MTU2MjUsInkiOjU3NH0seyJ4Ijo4MzcuMzUxNTYyNSwieSI6NjExfSx7IngiOjcwNS4xOTUzMTI1LCJ5Ijo2ODUuNTc4NzM0NTMxMzAyM31d" marker-start="url(#my-svg_class-extensionStart)"/><path d="M439.402,807.178L396.32,822.815C353.238,838.452,267.073,869.726,223.991,893.03C180.908,916.333,180.908,931.667,180.908,939.333L180.908,947" id="id_Hero_AnimationBus_2" class="edge-thickness-normal edge-pattern-solid relation" style=";;;" data-edge="true" data-et="edge" data-id="id_Hero_AnimationBus_2" data-points="W3sieCI6NDU1LjYxNzE4NzUsInkiOjgwMS4yOTI4NzI0MDMzNTc3fSx7IngiOjE4MC45MDgyMDMxMjUsInkiOjkwMX0seyJ4IjoxODAuOTA4MjAzMTI1LCJ5Ijo5NDd9XQ==" marker-start="url(#my-svg_class-aggregationStart)"/><path d="M458.128,876.087L453.9,880.239C449.672,884.391,441.216,892.696,436.988,904.514C432.76,916.333,432.76,931.667,432.76,939.333L432.76,947" id="id_Hero_ScrollTrigger_3" class="edge-thickness-normal edge-pattern-solid relation" style=";;;" data-edge="true" data-et="edge" data-id="id_Hero_ScrollTrigger_3" data-points="W3sieCI6NDcwLjQzNTA3NTQzMTAzNDUsInkiOjg2NH0seyJ4Ijo0MzIuNzU5NzY1NjI1LCJ5Ijo5MDF9LHsieCI6NDMyLjc1OTc2NTYyNSwieSI6OTQ3fV0=" marker-start="url(#my-svg_class-aggregationStart)"/><path d="M690.377,864L696.657,870.167C702.936,876.333,715.494,888.667,721.774,901.5C728.053,914.333,728.053,927.667,728.053,934.333L728.053,941" id="id_Hero_TextParty_4" class="edge-thickness-normal edge-pattern-dashed relation" style=";;;" data-edge="true" data-et="edge" data-id="id_Hero_TextParty_4" data-points="W3sieCI6NjkwLjM3NzQyNDU2ODk2NTYsInkiOjg2NH0seyJ4Ijo3MjguMDUyNzM0Mzc1LCJ5Ijo5MDF9LHsieCI6NzI4LjA1MjczNDM3NSwieSI6OTQ3fV0=" marker-end="url(#my-svg_class-dependencyEnd)"/><path d="M721.641,800.719L774.427,817.432C827.213,834.146,932.785,867.573,985.571,890.453C1038.357,913.333,1038.357,925.667,1038.357,931.833L1038.357,938" id="id_Hero_Timeline_5" class="edge-thickness-normal edge-pattern-solid relation" style=";;;" data-edge="true" data-et="edge" data-id="id_Hero_Timeline_5" data-points="W3sieCI6NzA1LjE5NTMxMjUsInkiOjc5NS41MTE2NjY2ODc5OTEyfSx7IngiOjEwMzguMzU3NDIxODc1LCJ5Ijo5MDF9LHsieCI6MTAzOC4zNTc0MjE4NzUsInkiOjkzOH1d" marker-start="url(#my-svg_class-compositionStart)"/></g><g class="edgeLabels"><g class="edgeLabel"><g class="label" data-id="edgeNote1" transform="translate(0, 0)"><foreignObject width="0" height="0"><div xmlns="http://www.w3.org/1999/xhtml" class="labelBkg" style="display: table-cell; white-space: nowrap; line-height: 1.5; max-width: 200px; text-align: center;"><span class="edgeLabel"></span></div></foreignObject></g></g><g class="edgeLabel"><g class="label" data-id="edgeNote2" transform="translate(0, 0)"><foreignObject width="0" height="0"><div xmlns="http://www.w3.org/1999/xhtml" class="labelBkg" style="display: table-cell; white-space: nowrap; line-height: 1.5; max-width: 200px; text-align: center;"><span class="edgeLabel"></span></div></foreignObject></g></g><g class="edgeLabel" transform="translate(837.3515625, 611)"><g class="label" data-id="id_BaseSection_Hero_1" transform="translate(-27.9765625, -12)"><foreignObject width="55.953125" height="24"><div xmlns="http://www.w3.org/1999/xhtml" class="labelBkg" style="display: table-cell; white-space: nowrap; line-height: 1.5; max-width: 200px; text-align: center;"><span class="edgeLabel"><p>extends</p></span></div></foreignObject></g></g><g class="edgeLabel" transform="translate(180.908203125, 901)"><g class="label" data-id="id_Hero_AnimationBus_2" transform="translate(-15.2109375, -12)"><foreignObject width="30.421875" height="24"><div xmlns="http://www.w3.org/1999/xhtml" class="labelBkg" style="display: table-cell; white-space: nowrap; line-height: 1.5; max-width: 200px; text-align: center;"><span class="edgeLabel"><p>uses</p></span></div></foreignObject></g></g><g class="edgeLabel" transform="translate(432.759765625, 901)"><g class="label" data-id="id_Hero_ScrollTrigger_3" transform="translate(-15.2109375, -12)"><foreignObject width="30.421875" height="24"><div xmlns="http://www.w3.org/1999/xhtml" class="labelBkg" style="display: table-cell; white-space: nowrap; line-height: 1.5; max-width: 200px; text-align: center;"><span class="edgeLabel"><p>uses</p></span></div></foreignObject></g></g><g class="edgeLabel" transform="translate(728.052734375, 901)"><g class="label" data-id="id_Hero_TextParty_4" transform="translate(-16.125, -12)"><foreignObject width="32.25" height="24"><div xmlns="http://www.w3.org/1999/xhtml" class="labelBkg" style="display: table-cell; white-space: nowrap; line-height: 1.5; max-width: 200px; text-align: center;"><span class="edgeLabel"><p>calls</p></span></div></foreignObject></g></g><g class="edgeLabel" transform="translate(1038.357421875, 901)"><g class="label" data-id="id_Hero_Timeline_5" transform="translate(-63.359375, -12)"><foreignObject width="126.71875" height="24"><div xmlns="http://www.w3.org/1999/xhtml" class="labelBkg" style="display: table-cell; white-space: nowrap; line-height: 1.5; max-width: 200px; text-align: center;"><span class="edgeLabel"><p>owns rollTimeline</p></span></div></foreignObject></g></g></g><g class="nodes"><g class="node default" id="classId-BaseSection-0" transform="translate(837.3515625, 334)"><g class="basic label-container"><path d="M-148.4296875 -240 L148.4296875 -240 L148.4296875 240 L-148.4296875 240" stroke="none" stroke-width="0" fill="#dbeafe" style=""/><path d="M-148.4296875 -240 C-85.29612110288063 -240, -22.162554705761266 -240, 148.4296875 -240 M-148.4296875 -240 C-88.7420245675645 -240, -29.054361635128984 -240, 148.4296875 -240 M148.4296875 -240 C148.4296875 -90.64063586939568, 148.4296875 58.71872826120864, 148.4296875 240 M148.4296875 -240 C148.4296875 -110.89134435527751, 148.4296875 18.21731128944498, 148.4296875 240 M148.4296875 240 C65.07046098861456 240, -18.288765522770888 240, -148.4296875 240 M148.4296875 240 C84.92932833693052 240, 21.42896917386105 240, -148.4296875 240 M-148.4296875 240 C-148.4296875 118.35583428393095, -148.4296875 -3.288331432138108, -148.4296875 -240 M-148.4296875 240 C-148.4296875 102.3435995940037, -148.4296875 -35.31280081199259, -148.4296875 -240" stroke="#2563eb" stroke-width="1.3" fill="none" stroke-dasharray="0 0" style=""/></g><g class="annotation-group text" transform="translate(-37.90625, -216)"><g class="label" style="" transform="translate(0,-12)"><foreignObject width="75.8125" height="24"><div xmlns="http://www.w3.org/1999/xhtml" style="display: table-cell; white-space: nowrap; line-height: 1.5; max-width: 116px; text-align: center;"><span class="nodeLabel markdown-node-label" style=""><p>«abstract»</p></span></div></foreignObject></g></g><g class="label-group text" transform="translate(-44.65625, -192)"><g class="label" style="font-weight: bolder" transform="translate(0,-12)"><foreignObject width="89.3125" height="24"><div xmlns="http://www.w3.org/1999/xhtml" style="display: table-cell; white-space: nowrap; line-height: 1.5; max-width: 129px; text-align: center;"><span class="nodeLabel markdown-node-label" style=""><p>BaseSection</p></span></div></foreignObject></g></g><g class="members-group text" transform="translate(-136.4296875, -144)"><g class="label" style="" transform="translate(0,-12)"><foreignObject width="67.0625" height="24"><div xmlns="http://www.w3.org/1999/xhtml" style="display: table-cell; white-space: nowrap; line-height: 1.5; max-width: 115px; text-align: center;"><span class="nodeLabel markdown-node-label" style=""><p>#string id</p></span></div></foreignObject></g><g class="label" style="" transform="translate(0,12)"><foreignObject width="134.28125" height="24"><div xmlns="http://www.w3.org/1999/xhtml" style="display: table-cell; white-space: nowrap; line-height: 1.5; max-width: 182px; text-align: center;"><span class="nodeLabel markdown-node-label" style=""><p>#AnimationBus bus</p></span></div></foreignObject></g><g class="label" style="" transform="translate(0,36)"><foreignObject width="188.21875" height="24"><div xmlns="http://www.w3.org/1999/xhtml" style="display: table-cell; white-space: nowrap; line-height: 1.5; max-width: 227px; text-align: center;"><span class="nodeLabel markdown-node-label" style=""><p>#ScrollSmoother smoother</p></span></div></foreignObject></g><g class="label" style="" transform="translate(0,60)"><foreignObject width="170.796875" height="24"><div xmlns="http://www.w3.org/1999/xhtml" style="display: table-cell; white-space: nowrap; line-height: 1.5; max-width: 216px; text-align: center;"><span class="nodeLabel markdown-node-label" style=""><p>#HTMLElement element</p></span></div></foreignObject></g><g class="label" style="" transform="translate(0,84)"><foreignObject width="134.828125" height="24"><div xmlns="http://www.w3.org/1999/xhtml" style="display: table-cell; white-space: nowrap; line-height: 1.5; max-width: 176px; text-align: center;"><span class="nodeLabel markdown-node-label" style=""><p>#Timeline timeline</p></span></div></foreignObject></g><g class="label" style="" transform="translate(0,108)"><foreignObject width="175.4375" height="24"><div xmlns="http://www.w3.org/1999/xhtml" style="display: table-cell; white-space: nowrap; line-height: 1.5; max-width: 213px; text-align: center;"><span class="nodeLabel markdown-node-label" style=""><p>#boolean hasIntroPlayed</p></span></div></foreignObject></g><g class="label" style="" transform="translate(0,132)"><foreignObject width="181.765625" height="24"><div xmlns="http://www.w3.org/1999/xhtml" style="display: table-cell; white-space: nowrap; line-height: 1.5; max-width: 219px; text-align: center;"><span class="nodeLabel markdown-node-label" style=""><p>#boolean hasOutroPlayed</p></span></div></foreignObject></g></g><g class="methods-group text" transform="translate(-136.4296875, 48)"><g class="label" style="" transform="translate(0,-12)"><foreignObject width="228.203125" height="24"><div xmlns="http://www.w3.org/1999/xhtml" style="display: table-cell; white-space: nowrap; line-height: 1.5; max-width: 256px; text-align: center;"><span class="nodeLabel markdown-node-label" style=""><p>+constructor(id, bus, smoother)</p></span></div></foreignObject></g><g class="label" style="font-style:italic;" transform="translate(0,12)"><foreignObject width="147.40625" height="24"><div xmlns="http://www.w3.org/1999/xhtml" style="display: table-cell; white-space: nowrap; line-height: 1.5; max-width: 184px; text-align: center;"><span class="nodeLabel markdown-node-label" style=""><p>+createIntro() : void</p></span></div></foreignObject></g><g class="label" style="font-style:italic;" transform="translate(0,36)"><foreignObject width="153.890625" height="24"><div xmlns="http://www.w3.org/1999/xhtml" style="display: table-cell; white-space: nowrap; line-height: 1.5; max-width: 191px; text-align: center;"><span class="nodeLabel markdown-node-label" style=""><p>+createOutro() : void</p></span></div></foreignObject></g><g class="label" style="font-style:italic;" transform="translate(0,60)"><foreignObject width="209.78125" height="24"><div xmlns="http://www.w3.org/1999/xhtml" style="display: table-cell; white-space: nowrap; line-height: 1.5; max-width: 245px; text-align: center;"><span class="nodeLabel markdown-node-label" style=""><p>+createScrollTriggers() : void</p></span></div></foreignObject></g><g class="label" style="" transform="translate(0,84)"><foreignObject width="129.828125" height="24"><div xmlns="http://www.w3.org/1999/xhtml" style="display: table-cell; white-space: nowrap; line-height: 1.5; max-width: 174px; text-align: center;"><span class="nodeLabel markdown-node-label" style=""><p>+playIntro() : void</p></span></div></foreignObject></g><g class="label" style="" transform="translate(0,108)"><foreignObject width="136.15625" height="24"><div xmlns="http://www.w3.org/1999/xhtml" style="display: table-cell; white-space: nowrap; line-height: 1.5; max-width: 180px; text-align: center;"><span class="nodeLabel markdown-node-label" style=""><p>+playOutro() : void</p></span></div></foreignObject></g><g class="label" style="" transform="translate(0,132)"><foreignObject width="102.046875" height="24"><div xmlns="http://www.w3.org/1999/xhtml" style="display: table-cell; white-space: nowrap; line-height: 1.5; max-width: 145px; text-align: center;"><span class="nodeLabel markdown-node-label" style=""><p>+reset() : void</p></span></div></foreignObject></g><g class="label" style="" transform="translate(0,156)"><foreignObject width="118.71875" height="24"><div xmlns="http://www.w3.org/1999/xhtml" style="display: table-cell; white-space: nowrap; line-height: 1.5; max-width: 162px; text-align: center;"><span class="nodeLabel markdown-node-label" style=""><p>+destroy() : void</p></span></div></foreignObject></g></g><g class="divider" style=""><path d="M-148.4296875 -168 C-38.91019393797703 -168, 70.60929962404595 -168, 148.4296875 -168 M-148.4296875 -168 C-67.30617094195603 -168, 13.817345616087948 -168, 148.4296875 -168" stroke="#2563eb" stroke-width="1.3" fill="none" stroke-dasharray="0 0" style=""/></g><g class="divider" style=""><path d="M-148.4296875 24 C-39.92253484905211 24, 68.58461780189577 24, 148.4296875 24 M-148.4296875 24 C-43.24334581289342 24, 61.94299587421315 24, 148.4296875 24" stroke="#2563eb" stroke-width="1.3" fill="none" stroke-dasharray="0 0" style=""/></g></g><g class="node default" id="classId-Hero-1" transform="translate(580.40625, 756)"><g class="basic label-container"><path d="M-124.7890625 -108 L124.7890625 -108 L124.7890625 108 L-124.7890625 108" stroke="none" stroke-width="0" fill="#dbeafe" style=""/><path d="M-124.7890625 -108 C-33.64466108831087 -108, 57.49974032337826 -108, 124.7890625 -108 M-124.7890625 -108 C-33.679720163596855 -108, 57.42962217280629 -108, 124.7890625 -108 M124.7890625 -108 C124.7890625 -61.327348004455395, 124.7890625 -14.65469600891079, 124.7890625 108 M124.7890625 -108 C124.7890625 -54.98478285422048, 124.7890625 -1.9695657084409532, 124.7890625 108 M124.7890625 108 C38.01613035704207 108, -48.756801785915854 108, -124.7890625 108 M124.7890625 108 C37.67082119951591 108, -49.44742010096817 108, -124.7890625 108 M-124.7890625 108 C-124.7890625 30.016554899867188, -124.7890625 -47.966890200265624, -124.7890625 -108 M-124.7890625 108 C-124.7890625 27.41918564563113, -124.7890625 -53.16162870873774, -124.7890625 -108" stroke="#2563eb" stroke-width="1.3" fill="none" stroke-dasharray="0 0" style=""/></g><g class="annotation-group text" transform="translate(0, -84)"/><g class="label-group text" transform="translate(-18.015625, -84)"><g class="label" style="font-weight: bolder" transform="translate(0,-12)"><foreignObject width="36.03125" height="24"><div xmlns="http://www.w3.org/1999/xhtml" style="display: table-cell; white-space: nowrap; line-height: 1.5; max-width: 82px; text-align: center;"><span class="nodeLabel markdown-node-label" style=""><p>Hero</p></span></div></foreignObject></g></g><g class="members-group text" transform="translate(-112.7890625, -36)"><g class="label" style="" transform="translate(0,-12)"><foreignObject width="198.828125" height="24"><div xmlns="http://www.w3.org/1999/xhtml" style="display: table-cell; white-space: nowrap; line-height: 1.5; max-width: 241px; text-align: center;"><span class="nodeLabel markdown-node-label" style=""><p>-HTMLElement titleElement</p></span></div></foreignObject></g><g class="label" style="" transform="translate(0,12)"><foreignObject width="158.828125" height="24"><div xmlns="http://www.w3.org/1999/xhtml" style="display: table-cell; white-space: nowrap; line-height: 1.5; max-width: 200px; text-align: center;"><span class="nodeLabel markdown-node-label" style=""><p>-Timeline rollTimeline</p></span></div></foreignObject></g></g><g class="methods-group text" transform="translate(-112.7890625, 36)"><g class="label" style="" transform="translate(0,-12)"><foreignObject width="204.03125" height="24"><div xmlns="http://www.w3.org/1999/xhtml" style="display: table-cell; white-space: nowrap; line-height: 1.5; max-width: 236px; text-align: center;"><span class="nodeLabel markdown-node-label" style=""><p>+constructor(bus, smoother)</p></span></div></foreignObject></g><g class="label" style="" transform="translate(0,12)"><foreignObject width="146.25" height="24"><div xmlns="http://www.w3.org/1999/xhtml" style="display: table-cell; white-space: nowrap; line-height: 1.5; max-width: 184px; text-align: center;"><span class="nodeLabel markdown-node-label" style=""><p>+createIntro() : void</p></span></div></foreignObject></g><g class="label" style="" transform="translate(0,36)"><foreignObject width="207.5625" height="24"><div xmlns="http://www.w3.org/1999/xhtml" style="display: table-cell; white-space: nowrap; line-height: 1.5; max-width: 245px; text-align: center;"><span class="nodeLabel markdown-node-label" style=""><p>+createScrollTriggers() : void</p></span></div></foreignObject></g></g><g class="divider" style=""><path d="M-124.7890625 -60 C-54.68671322331575 -60, 15.415636053368502 -60, 124.7890625 -60 M-124.7890625 -60 C-32.10544478542134 -60, 60.57817292915732 -60, 124.7890625 -60" stroke="#2563eb" stroke-width="1.3" fill="none" stroke-dasharray="0 0" style=""/></g><g class="divider" style=""><path d="M-124.7890625 12 C-47.25190355636255 12, 30.2852553872749 12, 124.7890625 12 M-124.7890625 12 C-65.83665812641067 12, -6.884253752821337 12, 124.7890625 12" stroke="#2563eb" stroke-width="1.3" fill="none" stroke-dasharray="0 0" style=""/></g></g><g class="node default" id="classId-AnimationBus-2" transform="translate(180.908203125, 1022)"><g class="basic label-container"><path d="M-111.33984375 -75 L111.33984375 -75 L111.33984375 75 L-111.33984375 75" stroke="none" stroke-width="0" fill="#dbeafe" style=""/><path d="M-111.33984375 -75 C-28.05978650764183 -75, 55.22027073471634 -75, 111.33984375 -75 M-111.33984375 -75 C-37.29211751482171 -75, 36.75560872035658 -75, 111.33984375 -75 M111.33984375 -75 C111.33984375 -31.922229548918885, 111.33984375 11.15554090216223, 111.33984375 75 M111.33984375 -75 C111.33984375 -41.0264563261516, 111.33984375 -7.052912652303206, 111.33984375 75 M111.33984375 75 C25.8132405826576 75, -59.7133625846848 75, -111.33984375 75 M111.33984375 75 C34.194375450745824 75, -42.95109284850835 75, -111.33984375 75 M-111.33984375 75 C-111.33984375 41.353994189469745, -111.33984375 7.70798837893949, -111.33984375 -75 M-111.33984375 75 C-111.33984375 37.46352726142256, -111.33984375 -0.07294547715487454, -111.33984375 -75" stroke="#2563eb" stroke-width="1.3" fill="none" stroke-dasharray="0 0" style=""/></g><g class="annotation-group text" transform="translate(0, -51)"/><g class="label-group text" transform="translate(-51.0546875, -51)"><g class="label" style="font-weight: bolder" transform="translate(0,-12)"><foreignObject width="102.109375" height="24"><div xmlns="http://www.w3.org/1999/xhtml" style="display: table-cell; white-space: nowrap; line-height: 1.5; max-width: 143px; text-align: center;"><span class="nodeLabel markdown-node-label" style=""><p>AnimationBus</p></span></div></foreignObject></g></g><g class="members-group text" transform="translate(-99.33984375, -3)"/><g class="methods-group text" transform="translate(-99.33984375, 27)"><g class="label" style="" transform="translate(0,-12)"><foreignObject width="136.203125" height="24"><div xmlns="http://www.w3.org/1999/xhtml" style="display: table-cell; white-space: nowrap; line-height: 1.5; max-width: 172px; text-align: center;"><span class="nodeLabel markdown-node-label" style=""><p>+emit(event, data)</p></span></div></foreignObject></g><g class="label" style="" transform="translate(0,12)"><foreignObject width="147.625" height="24"><div xmlns="http://www.w3.org/1999/xhtml" style="display: table-cell; white-space: nowrap; line-height: 1.5; max-width: 186px; text-align: center;"><span class="nodeLabel markdown-node-label" style=""><p>+on(event, callback)</p></span></div></foreignObject></g></g><g class="divider" style=""><path d="M-111.33984375 -27 C-60.92416229723254 -27, -10.508480844465083 -27, 111.33984375 -27 M-111.33984375 -27 C-54.08479415938514 -27, 3.1702554312297195 -27, 111.33984375 -27" stroke="#2563eb" stroke-width="1.3" fill="none" stroke-dasharray="0 0" style=""/></g><g class="divider" style=""><path d="M-111.33984375 -3 C-46.68451349720981 -3, 17.970816755580387 -3, 111.33984375 -3 M-111.33984375 -3 C-23.25774670744086 -3, 64.82435033511828 -3, 111.33984375 -3" stroke="#2563eb" stroke-width="1.3" fill="none" stroke-dasharray="0 0" style=""/></g></g><g class="node default" id="classId-ScrollTrigger-3" transform="translate(432.759765625, 1022)"><g class="basic label-container"><path d="M-90.51171875 -75 L90.51171875 -75 L90.51171875 75 L-90.51171875 75" stroke="none" stroke-width="0" fill="#dbeafe" style=""/><path d="M-90.51171875 -75 C-33.643865494046835 -75, 23.22398776190633 -75, 90.51171875 -75 M-90.51171875 -75 C-27.644876215561673 -75, 35.22196631887665 -75, 90.51171875 -75 M90.51171875 -75 C90.51171875 -18.8718993140344, 90.51171875 37.2562013719312, 90.51171875 75 M90.51171875 -75 C90.51171875 -18.533088873366275, 90.51171875 37.93382225326745, 90.51171875 75 M90.51171875 75 C19.478622213454784 75, -51.55447432309043 75, -90.51171875 75 M90.51171875 75 C18.580796911719318 75, -53.350124926561364 75, -90.51171875 75 M-90.51171875 75 C-90.51171875 35.119470218907566, -90.51171875 -4.761059562184869, -90.51171875 -75 M-90.51171875 75 C-90.51171875 30.439951890473857, -90.51171875 -14.120096219052286, -90.51171875 -75" stroke="#2563eb" stroke-width="1.3" fill="none" stroke-dasharray="0 0" style=""/></g><g class="annotation-group text" transform="translate(-38.34375, -51)"><g class="label" style="" transform="translate(0,-12)"><foreignObject width="76.6875" height="24"><div xmlns="http://www.w3.org/1999/xhtml" style="display: table-cell; white-space: nowrap; line-height: 1.5; max-width: 118px; text-align: center;"><span class="nodeLabel markdown-node-label" style=""><p>«external»</p></span></div></foreignObject></g></g><g class="label-group text" transform="translate(-46.7734375, -27)"><g class="label" style="font-weight: bolder" transform="translate(0,-12)"><foreignObject width="93.546875" height="24"><div xmlns="http://www.w3.org/1999/xhtml" style="display: table-cell; white-space: nowrap; line-height: 1.5; max-width: 136px; text-align: center;"><span class="nodeLabel markdown-node-label" style=""><p>ScrollTrigger</p></span></div></foreignObject></g></g><g class="members-group text" transform="translate(-78.51171875, 21)"/><g class="methods-group text" transform="translate(-78.51171875, 51)"><g class="label" style="" transform="translate(0,-12)"><foreignObject width="110.25" height="24"><div xmlns="http://www.w3.org/1999/xhtml" style="display: table-cell; white-space: nowrap; line-height: 1.5; max-width: 153px; text-align: center;"><span class="nodeLabel markdown-node-label" style=""><p>+create(config)</p></span></div></foreignObject></g></g><g class="divider" style=""><path d="M-90.51171875 -3 C-41.43210839175832 -3, 7.647501966483361 -3, 90.51171875 -3 M-90.51171875 -3 C-40.67181818827783 -3, 9.168082373444335 -3, 90.51171875 -3" stroke="#2563eb" stroke-width="1.3" fill="none" stroke-dasharray="0 0" style=""/></g><g class="divider" style=""><path d="M-90.51171875 21 C-31.17591243134453 21, 28.159893887310943 21, 90.51171875 21 M-90.51171875 21 C-19.037219459009663 21, 52.437279831980675 21, 90.51171875 21" stroke="#2563eb" stroke-width="1.3" fill="none" stroke-dasharray="0 0" style=""/></g></g><g class="node default" id="classId-TextParty-4" transform="translate(728.052734375, 1022)"><g class="basic label-container"><path d="M-154.78125 -75 L154.78125 -75 L154.78125 75 L-154.78125 75" stroke="none" stroke-width="0" fill="#dbeafe" style=""/><path d="M-154.78125 -75 C-88.31532788021264 -75, -21.84940576042527 -75, 154.78125 -75 M-154.78125 -75 C-39.11861820570505 -75, 76.5440135885899 -75, 154.78125 -75 M154.78125 -75 C154.78125 -30.97037128280064, 154.78125 13.059257434398717, 154.78125 75 M154.78125 -75 C154.78125 -22.555684544808642, 154.78125 29.888630910382716, 154.78125 75 M154.78125 75 C36.07711132490854 75, -82.62702735018291 75, -154.78125 75 M154.78125 75 C80.27448224290065 75, 5.767714485801292 75, -154.78125 75 M-154.78125 75 C-154.78125 16.464701448182858, -154.78125 -42.070597103634285, -154.78125 -75 M-154.78125 75 C-154.78125 42.03586483875054, -154.78125 9.071729677501082, -154.78125 -75" stroke="#2563eb" stroke-width="1.3" fill="none" stroke-dasharray="0 0" style=""/></g><g class="annotation-group text" transform="translate(-38.34375, -51)"><g class="label" style="" transform="translate(0,-12)"><foreignObject width="76.6875" height="24"><div xmlns="http://www.w3.org/1999/xhtml" style="display: table-cell; white-space: nowrap; line-height: 1.5; max-width: 118px; text-align: center;"><span class="nodeLabel markdown-node-label" style=""><p>«external»</p></span></div></foreignObject></g></g><g class="label-group text" transform="translate(-35.640625, -27)"><g class="label" style="font-weight: bolder" transform="translate(0,-12)"><foreignObject width="71.28125" height="24"><div xmlns="http://www.w3.org/1999/xhtml" style="display: table-cell; white-space: nowrap; line-height: 1.5; max-width: 112px; text-align: center;"><span class="nodeLabel markdown-node-label" style=""><p>TextParty</p></span></div></foreignObject></g></g><g class="members-group text" transform="translate(-142.78125, 21)"/><g class="methods-group text" transform="translate(-142.78125, 51)"><g class="label" style="" transform="translate(0,-12)"><foreignObject width="247.21875" height="24"><div xmlns="http://www.w3.org/1999/xhtml" style="display: table-cell; white-space: nowrap; line-height: 1.5; max-width: 273px; text-align: center;"><span class="nodeLabel markdown-node-label" style=""><p>+roll(element, settings) : Timeline</p></span></div></foreignObject></g></g><g class="divider" style=""><path d="M-154.78125 -3 C-44.333306320141844 -3, 66.11463735971631 -3, 154.78125 -3 M-154.78125 -3 C-52.531334016762756 -3, 49.71858196647449 -3, 154.78125 -3" stroke="#2563eb" stroke-width="1.3" fill="none" stroke-dasharray="0 0" style=""/></g><g class="divider" style=""><path d="M-154.78125 21 C-60.614962608701575 21, 33.55132478259685 21, 154.78125 21 M-154.78125 21 C-51.59192639869957 21, 51.59739720260086 21, 154.78125 21" stroke="#2563eb" stroke-width="1.3" fill="none" stroke-dasharray="0 0" style=""/></g></g><g class="node default" id="classId-Timeline-5" transform="translate(1038.357421875, 1022)"><g class="basic label-container"><path d="M-105.5234375 -84 L105.5234375 -84 L105.5234375 84 L-105.5234375 84" stroke="none" stroke-width="0" fill="#dbeafe" style=""/><path d="M-105.5234375 -84 C-23.133473312876276 -84, 59.25649087424745 -84, 105.5234375 -84 M-105.5234375 -84 C-38.25867440866047 -84, 29.006088682679064 -84, 105.5234375 -84 M105.5234375 -84 C105.5234375 -31.5665884494655, 105.5234375 20.866823101069002, 105.5234375 84 M105.5234375 -84 C105.5234375 -27.514401551161548, 105.5234375 28.971196897676904, 105.5234375 84 M105.5234375 84 C39.45563036062789 84, -26.612176778744214 84, -105.5234375 84 M105.5234375 84 C21.6294702895934 84, -62.2644969208132 84, -105.5234375 84 M-105.5234375 84 C-105.5234375 38.69786183834657, -105.5234375 -6.604276323306863, -105.5234375 -84 M-105.5234375 84 C-105.5234375 39.843046718044846, -105.5234375 -4.313906563910308, -105.5234375 -84" stroke="#2563eb" stroke-width="1.3" fill="none" stroke-dasharray="0 0" style=""/></g><g class="annotation-group text" transform="translate(-38.34375, -60)"><g class="label" style="" transform="translate(0,-12)"><foreignObject width="76.6875" height="24"><div xmlns="http://www.w3.org/1999/xhtml" style="display: table-cell; white-space: nowrap; line-height: 1.5; max-width: 118px; text-align: center;"><span class="nodeLabel markdown-node-label" style=""><p>«external»</p></span></div></foreignObject></g></g><g class="label-group text" transform="translate(-32.5234375, -36)"><g class="label" style="font-weight: bolder" transform="translate(0,-12)"><foreignObject width="65.046875" height="24"><div xmlns="http://www.w3.org/1999/xhtml" style="display: table-cell; white-space: nowrap; line-height: 1.5; max-width: 107px; text-align: center;"><span class="nodeLabel markdown-node-label" style=""><p>Timeline</p></span></div></foreignObject></g></g><g class="members-group text" transform="translate(-93.5234375, 12)"><g class="label" style="" transform="translate(0,-12)"><foreignObject width="64.546875" height="24"><div xmlns="http://www.w3.org/1999/xhtml" style="display: table-cell; white-space: nowrap; line-height: 1.5; max-width: 113px; text-align: center;"><span class="nodeLabel markdown-node-label" style=""><p>-string id</p></span></div></foreignObject></g></g><g class="methods-group text" transform="translate(-93.5234375, 60)"><g class="label" style="" transform="translate(0,-12)"><foreignObject width="148.703125" height="24"><div xmlns="http://www.w3.org/1999/xhtml" style="display: table-cell; white-space: nowrap; line-height: 1.5; max-width: 189px; text-align: center;"><span class="nodeLabel markdown-node-label" style=""><p>+add(child, position)</p></span></div></foreignObject></g></g><g class="divider" style=""><path d="M-105.5234375 -12 C-33.93302856632201 -12, 37.657380367355984 -12, 105.5234375 -12 M-105.5234375 -12 C-24.062480489577766 -12, 57.39847652084447 -12, 105.5234375 -12" stroke="#2563eb" stroke-width="1.3" fill="none" stroke-dasharray="0 0" style=""/></g><g class="divider" style=""><path d="M-105.5234375 36 C-53.59096368807928 36, -1.658489876158555 36, 105.5234375 36 M-105.5234375 36 C-51.00603244627171 36, 3.511372607456579 36, 105.5234375 36" stroke="#2563eb" stroke-width="1.3" fill="none" stroke-dasharray="0 0" style=""/></g></g><g class="node undefined" id="note0" transform="translate(323.4609375, 334)"><g class="basic label-container"><path d="M-315.4609375 -18 L315.4609375 -18 L315.4609375 18 L-315.4609375 18" stroke="none" stroke-width="0" fill="#fef3c7" style="fill:#fef3c7 !important;stroke:#f59e0b !important"/><path d="M-315.4609375 -18 C-86.70896778628463 -18, 142.04300192743074 -18, 315.4609375 -18 M-315.4609375 -18 C-149.15688158623507 -18, 17.147174327529854 -18, 315.4609375 -18 M315.4609375 -18 C315.4609375 -9.09076268896275, 315.4609375 -0.1815253779254995, 315.4609375 18 M315.4609375 -18 C315.4609375 -6.047340556491491, 315.4609375 5.9053188870170175, 315.4609375 18 M315.4609375 18 C146.2686265698153 18, -22.923684360369407 18, -315.4609375 18 M315.4609375 18 C126.43594381332395 18, -62.58904987335211 18, -315.4609375 18 M-315.4609375 18 C-315.4609375 10.001427493639683, -315.4609375 2.002854987279367, -315.4609375 -18 M-315.4609375 18 C-315.4609375 8.81684458194151, -315.4609375 -0.36631083611698045, -315.4609375 -18" stroke="#f59e0b" stroke-width="1.3" fill="none" stroke-dasharray="0 0" style="fill:#fef3c7 !important;stroke:#f59e0b !important"/></g><g class="label" style="text-align:left !important;white-space:nowrap !important" transform="translate(-309.4609375, -12)"><rect/><foreignObject width="618.921875" height="24"><div style="text-align: center; white-space: break-spaces; display: table; line-height: 1.5; max-width: 200px; width: 200px;" xmlns="http://www.w3.org/1999/xhtml"><span style="text-align:left !important;white-space:nowrap !important" class="nodeLabel"><p>Manages hero title animations:\n- TextParty.roll intro\n- Scroll-triggered reverse outro</p></span></div></foreignObject></g></g><g class="node undefined" id="note1" transform="translate(837.3515625, 26)"><g class="basic label-container"><path d="M-347.515625 -18 L347.515625 -18 L347.515625 18 L-347.515625 18" stroke="none" stroke-width="0" fill="#fef3c7" style="fill:#fef3c7 !important;stroke:#f59e0b !important"/><path d="M-347.515625 -18 C-82.71878512072152 -18, 182.07805475855696 -18, 347.515625 -18 M-347.515625 -18 C-118.74728163475194 -18, 110.02106173049611 -18, 347.515625 -18 M347.515625 -18 C347.515625 -6.849828279785003, 347.515625 4.3003434404299945, 347.515625 18 M347.515625 -18 C347.515625 -5.09815910590428, 347.515625 7.80368178819144, 347.515625 18 M347.515625 18 C100.48508496954457 18, -146.54545506091085 18, -347.515625 18 M347.515625 18 C132.27685344167185 18, -82.9619181166563 18, -347.515625 18 M-347.515625 18 C-347.515625 9.799353799580377, -347.515625 1.598707599160754, -347.515625 -18 M-347.515625 18 C-347.515625 3.6072467251100804, -347.515625 -10.78550654977984, -347.515625 -18" stroke="#f59e0b" stroke-width="1.3" fill="none" stroke-dasharray="0 0" style="fill:#fef3c7 !important;stroke:#f59e0b !important"/></g><g class="label" style="text-align:left !important;white-space:nowrap !important" transform="translate(-341.515625, -12)"><rect/><foreignObject width="683.03125" height="24"><div style="text-align: center; white-space: break-spaces; display: table; line-height: 1.5; max-width: 200px; width: 200px;" xmlns="http://www.w3.org/1999/xhtml"><span style="text-align:left !important;white-space:nowrap !important" class="nodeLabel"><p>Abstract foundation for section controllers\nProvides lifecycle methods and event coordination</p></span></div></foreignObject></g></g></g></g></g></svg>