<svg width="126" height="120" viewBox="0 0 126 120" fill="none" xmlns="http://www.w3.org/2000/svg">
<g id="asterisk">
<g id="cyan" style="mix-blend-mode:multiply">
<path d="M77.6648 2.98074L70.8937 51.9326L120.483 39.7705L123.272 63.4297L76.0659 65.6825L105.152 107.133L82.7431 118.417L62.503 72.9101L41.2946 117.021L18.9284 104.23L50.2245 64.8124L3.78814 59.4067L8.16267 35.9886L56.3099 51.4416L52.591 2.1365L77.6648 2.98074Z" fill="#36C1FA"/>
</g>
<g id="magenta" style="mix-blend-mode:multiply">
<path d="M71.8998 2.18213L68.3417 51.4718L117.03 36.0954L121.36 59.5219L74.4013 64.8543L106.133 104.315L84.51 117.04L61.3397 72.9528L43.0589 118.356L19.9046 107.052L48.5583 65.6746L1.86797 63.3147L4.70298 39.6608L53.7571 51.9348L46.8244 2.97804L71.8998 2.18213Z" fill="#EF7D48"/>
</g>
<g id="yellow" style="mix-blend-mode:multiply">
<path d="M74.227 1.24146L70.3902 50.5102L119.165 35.4094L123.362 58.86L76.3741 63.9268L107.882 103.567L86.1875 116.169L63.2668 71.9513L44.7296 117.25L21.6396 105.816L50.5269 64.6009L3.85058 61.977L6.8193 38.3396L55.8032 50.8907L49.1475 1.89556L74.227 1.24146Z" fill="#FFE01F"/>
</g>
</g>
</svg>
