<svg width="200" height="200" viewBox="0 0 200 200" fill="none" xmlns="http://www.w3.org/2000/svg">
<g clip-path="url(#clip0_7_35)">
<path d="M194.259 107.909L189.304 106.345C188.475 106.087 187.636 106.057 186.802 105.878C191.963 101.032 195.872 94.4399 198.052 86.9029C200.233 79.3659 200.591 71.2092 199.084 63.4254L197.883 57.2939C197.463 55.1722 196.381 53.3415 194.871 52.2018C193.362 51.062 191.548 50.7057 189.826 51.2108L184.852 52.6853C184.562 52.7714 184.312 52.9476 184.026 53.0428C185.345 46.2199 185.23 39.094 183.69 32.3417C182.15 25.5894 179.238 19.4349 175.229 14.4625L171.619 10.0072C170.366 8.46217 168.668 7.59356 166.897 7.59201C165.126 7.59047 163.427 8.45611 162.172 9.99898L158.549 14.4625C156.689 16.8087 155.065 19.4231 153.712 22.2491C150.914 15.5678 146.686 9.96104 141.487 6.03834C136.287 2.11565 130.316 0.0271818 124.222 1.38947e-06H119.11C118.232 -0.000627671 117.363 0.212347 116.551 0.626749C115.74 1.04115 115.003 1.64885 114.382 2.4151C113.761 3.18135 113.269 4.09112 112.933 5.0924C112.597 6.09368 112.424 7.16682 112.425 8.25046V14.5591C112.435 25.4959 115.96 35.9812 122.227 43.7147C128.493 51.4482 136.989 55.7985 145.851 55.8114H147.312C153.619 67.3018 157 80.8564 157.021 94.7352C157.021 113.399 151.013 131.298 140.32 144.495C129.627 157.692 115.124 165.106 100.001 165.106C84.8786 165.106 70.3754 157.692 59.6821 144.495C48.9889 131.298 42.9815 113.399 42.9815 94.7352C43.0021 80.8564 46.3831 67.3018 52.6905 55.8115H54.1519C63.0137 55.7986 71.5097 51.4483 77.776 43.7148C84.0422 35.9812 87.5672 25.496 87.5776 14.5592V8.25054C87.5781 7.1669 87.4056 6.09376 87.0698 5.09248C86.734 4.09121 86.2416 3.18144 85.6207 2.41518C84.9998 1.64893 84.2627 1.04123 83.4514 0.626831C82.6401 0.21243 81.7705 -0.000545054 80.8925 8.40061e-05H75.781C69.6867 0.0272056 63.7151 2.1159 58.5154 6.03905C53.3158 9.96219 49.0872 15.5696 46.2895 22.2516C44.9355 19.4217 43.3099 16.8037 41.4478 14.4543L37.8312 9.99906C36.5767 8.45619 34.8775 7.59055 33.1064 7.5921C31.3354 7.59364 29.6372 8.46225 28.3844 10.0073L24.7745 14.4626C20.7652 19.4353 17.8525 25.5904 16.3129 32.3433C14.7734 39.0961 14.6582 46.2226 15.9782 53.0459C15.6893 52.9502 15.4375 52.7725 15.145 52.6854L10.1768 51.2109C8.45513 50.7035 6.64063 51.0587 5.13068 52.1988C3.62074 53.3389 2.53841 55.1711 2.12071 57.294L0.912903 63.4416C-0.591664 71.2254 -0.230528 79.3812 1.95236 86.9163C4.13525 94.4515 8.04577 101.041 13.208 105.883C12.3716 106.064 11.5306 106.094 10.6986 106.354L5.74352 107.909C4.02637 108.446 2.55229 109.803 1.6452 111.68C0.738113 113.558 0.47222 115.804 0.905951 117.924L2.1659 124.047C3.24333 129.299 5.1491 134.238 7.77423 138.581C10.3994 142.923 13.6924 146.585 17.4649 149.356C21.2375 152.127 25.4156 153.953 29.7604 154.73C34.1052 155.506 38.5315 155.218 42.7861 153.882L47.5036 152.402C53.9724 161.373 61.8729 168.599 70.7099 173.626C63.4556 176.299 56.4706 179.979 49.889 184.596C48.3536 185.684 47.2307 187.479 46.7666 189.588C46.3025 191.696 46.5352 193.946 47.4136 195.843C48.292 197.74 49.7443 199.13 51.4519 199.707C53.1595 200.284 54.9829 200.002 56.5219 198.921C69.7741 189.622 84.757 184.733 100.002 184.733C115.246 184.733 130.229 189.622 143.481 198.921C145.02 200.002 146.843 200.284 148.551 199.707C150.259 199.13 151.711 197.74 152.589 195.843C153.468 193.946 153.7 191.696 153.236 189.588C152.772 187.479 151.649 185.684 150.114 184.596C143.532 179.979 136.547 176.299 129.293 173.626C138.13 168.599 146.03 161.374 152.499 152.402L157.217 153.89C165.812 156.579 174.92 154.944 182.539 149.347C190.157 143.749 195.662 134.645 197.844 124.039L199.097 117.924C199.531 115.804 199.265 113.558 198.358 111.68C197.451 109.802 195.976 108.446 194.259 107.909ZM74.1421 16.5815C73.7455 22.4244 71.6846 27.9051 68.3252 32.0511C64.9658 36.1972 60.5249 38.7406 55.7905 39.23C56.1871 33.3871 58.248 27.9064 61.6074 23.7604C64.9668 19.6143 69.4077 17.071 74.1421 16.5815ZM33.1106 27.6197C36.1775 32.0971 37.8601 37.7704 37.8601 43.6332C37.8601 49.496 36.1775 55.1693 33.1106 59.6467C30.0439 55.1693 28.3612 49.496 28.3612 43.6332C28.3612 37.7704 30.0439 32.0971 33.1106 27.6197ZM13.5971 69.283C18.109 71.1233 21.9461 74.8783 24.4264 79.8807C26.9066 84.8831 27.8694 90.8087 27.1436 96.6045C22.6326 94.7625 18.7966 91.0071 16.3165 86.0052C13.8365 81.0033 12.873 75.0785 13.5971 69.283ZM15.5883 121.928C20.275 120.959 25.0884 122.073 29.172 125.072C33.2556 128.072 36.3447 132.762 37.8896 138.308C33.2032 139.272 28.3917 138.156 24.3091 135.157C20.2264 132.158 17.1367 127.471 15.5883 121.928ZM186.406 69.283C187.131 75.0788 186.169 81.0044 183.688 86.0068C181.208 91.0092 177.371 94.7642 172.859 96.6045C172.133 90.8087 173.096 84.8831 175.576 79.8807C178.057 74.8783 181.894 71.1233 186.406 69.283ZM166.892 27.6197C169.959 32.0971 171.641 37.7704 171.641 43.6332C171.641 49.496 169.959 55.1693 166.892 59.6467C163.825 55.1693 162.142 49.496 162.142 43.6332C162.142 37.7704 163.825 32.0971 166.892 27.6197ZM125.861 16.5815C130.595 17.071 135.036 19.6143 138.395 23.7604C141.755 27.9064 143.815 33.3871 144.212 39.23C139.478 38.7406 135.037 36.1972 131.677 32.0511C128.318 27.9051 126.257 22.4244 125.861 16.5815ZM162.113 138.308C163.661 132.764 166.751 128.077 170.834 125.078C174.916 122.079 179.728 120.963 184.415 121.928C182.866 127.471 179.776 132.157 175.693 135.156C171.611 138.154 166.799 139.271 162.113 138.308Z" fill="black"/>
</g>
<defs>
<clipPath id="clip0_7_35">
<rect width="200" height="200" fill="white"/>
</clipPath>
</defs>
</svg>
