<svg xmlns="http://www.w3.org/2000/svg" width="50" height="50" fill="none" viewBox="0 0 50 50">
  <g class="/mark/print-registration" clip-path="url(#a)">
    <g class="outer">
      <path stroke="#000" stroke-miterlimit="10" d="M45.892 25.386c0 11.51-9.325 20.839-20.836 20.839-11.5 0-20.833-9.331-20.833-20.839 0-11.504 9.334-20.829 20.834-20.829 11.508 0 20.835 9.325 20.835 20.83Z" class="ring"/>
      <g class="cross">
        <path stroke="#000" stroke-miterlimit="10" d="M0 25h50" class="horiz"/>
        <path stroke="#000" stroke-miterlimit="10" d="M25 0v50" class="vert"/>
      </g>
    </g>
    <g class="inner">
      <path fill="#000" d="M37.225 25.058c0 6.91-5.59 12.502-12.501 12.502-6.902 0-12.501-5.59-12.501-12.502 0-6.898 5.6-12.5 12.5-12.5 6.91 0 12.502 5.602 12.502 12.5Z" class="ring"/>
      <g class="cross">
        <path stroke="#fff" stroke-miterlimit="10" d="M13 25h24" class="horiz"/>
        <path stroke="#fff" stroke-miterlimit="10" d="M25 13v24" class="vert"/>
      </g>
    </g>
  </g>
  <defs>
    <clipPath id="a" class="a">
      <path fill="#fff" d="M0 0h50v50H0z"/>
    </clipPath>
  </defs>
</svg>
